<?xml version="1.0" standalone="no"?>
<!DOCTYPE svg PUBLIC "-//W3C//DTD SVG 20010904//EN"
 "http://www.w3.org/TR/2001/REC-SVG-20010904/DTD/svg10.dtd">
<svg version="1.0" xmlns="http://www.w3.org/2000/svg"
 width="500.000000pt" height="500.000000pt" viewBox="0 0 500.000000 500.000000"
 preserveAspectRatio="xMidYMid meet">

<g transform="translate(0.000000,500.000000) scale(0.100000,-0.100000)"
fill="#000000" stroke="none">
<path d="M2720 4819 c-426 -63 -469 -72 -509 -97 -54 -33 -81 -83 -88 -162
l-6 -60 -441 0 c-438 0 -442 0 -486 -22 -83 -43 -80 -16 -80 -653 0 -544 1
-561 20 -593 12 -19 38 -41 63 -52 41 -19 78 -20 1082 -20 666 0 1053 4 1076
10 35 10 74 40 94 73 8 12 56 21 223 41 267 33 393 34 429 6 18 -14 41 -20 73
-20 47 0 48 -1 71 -47 44 -88 44 -88 339 -91 l258 -3 21 27 c21 27 21 30 21
714 0 684 0 687 -21 714 l-21 27 -258 -3 c-244 -3 -260 -4 -287 -24 -15 -11
-37 -37 -48 -57 -19 -36 -22 -37 -77 -37 -52 0 -59 -3 -89 -35 -31 -32 -38
-35 -91 -35 -58 0 -58 0 -150 78 -303 256 -377 316 -413 337 -49 29 -146 55
-200 54 -22 0 -249 -32 -505 -70z m641 -31 c34 -16 142 -99 293 -226 l239
-202 78 0 79 0 0 -489 0 -488 -132 -6 c-73 -3 -200 -13 -283 -22 -93 -11 -186
-15 -245 -12 -167 9 -882 106 -920 125 -107 52 -115 204 -15 274 l40 28 424
20 c233 11 446 20 472 20 82 0 81 -7 77 304 -3 311 -6 322 -88 364 l-44 22
-568 0 -568 0 0 56 c0 67 24 107 73 123 17 5 158 28 312 51 154 22 350 52 435
65 187 29 266 27 341 -7z m3 -387 l26 -25 -2 -245 -3 -246 -265 -12 c-146 -7
-283 -12 -305 -10 -39 2 -40 3 -46 47 -18 124 -101 254 -207 327 -161 110
-382 112 -548 5 -170 -110 -259 -334 -209 -526 46 -176 164 -301 340 -361 70
-23 202 -22 283 4 l63 19 440 -56 c241 -32 439 -60 439 -63 0 -27 -78 -29
-1085 -29 -660 0 -1043 4 -1060 10 -54 20 -55 34 -55 588 0 346 4 519 11 541
22 64 -40 61 1111 58 l1046 -2 26 -24z m856 -516 l0 -545 -44 0 c-31 0 -46 5
-50 16 -11 28 -7 1034 4 1055 8 14 21 19 50 19 l40 0 0 -545z m-1766 327 c86
-40 168 -118 206 -196 35 -71 54 -156 36 -161 -6 -2 -56 -5 -111 -8 -68 -2
-111 -9 -133 -21 -32 -16 -35 -16 -75 2 -23 11 -50 22 -59 25 -15 5 -18 19
-18 81 0 42 5 78 11 81 12 8 49 -23 49 -42 0 -8 12 -13 35 -13 30 0 35 3 35
24 0 34 -37 75 -87 97 -34 15 -43 23 -43 44 0 16 -6 25 -15 25 -9 0 -15 -9
-15 -25 0 -21 -8 -29 -43 -44 -67 -29 -97 -71 -97 -136 0 -66 29 -105 95 -131
l45 -17 0 -78 c0 -73 -2 -79 -20 -79 -13 0 -28 12 -38 30 -13 24 -24 30 -49
30 -28 0 -33 -3 -33 -25 0 -34 47 -82 95 -97 32 -11 41 -18 43 -40 4 -36 32
-38 32 -3 0 36 14 31 29 -10 7 -19 24 -49 38 -65 14 -17 23 -33 20 -37 -17
-16 -151 -15 -213 2 -311 84 -417 471 -190 695 98 97 186 132 318 126 71 -3
98 -9 152 -34z m-186 -261 c-3 -57 -6 -66 -22 -66 -10 0 -28 12 -39 27 -17 22
-18 31 -8 58 12 37 39 60 59 53 9 -4 12 -24 10 -72z m79 -182 c9 -9 7 -21 -8
-50 -10 -21 -19 -45 -19 -53 0 -8 -4 -18 -10 -21 -6 -4 -10 20 -10 64 0 62 2
71 18 71 10 0 23 -5 29 -11z"/>
<path d="M1268 2746 c-62 -17 -111 -56 -137 -109 -20 -42 -21 -56 -21 -519 0
-535 8 -488 -80 -488 -67 0 -80 7 -80 42 0 19 -10 40 -29 59 -25 25 -37 29
-84 29 -51 0 -55 2 -67 31 -7 16 -29 42 -48 57 l-35 27 -263 3 -262 3 -21 -27
c-21 -27 -21 -30 -21 -724 0 -690 0 -698 21 -724 l20 -26 251 0 c210 0 255 3
284 16 41 20 73 58 81 96 5 26 9 28 52 28 60 0 107 29 119 72 l8 33 75 0 74 0
5 -186 c5 -181 6 -186 32 -227 15 -22 49 -54 75 -69 l48 -28 1235 0 1235 0 45
25 c24 14 58 45 75 68 l30 44 0 1183 0 1183 -30 43 c-18 26 -50 53 -80 68
l-49 26 -1206 2 c-948 1 -1215 -1 -1252 -11z m2468 -75 c25 -12 50 -33 65 -57
l24 -39 0 -1140 c0 -1126 0 -1140 -20 -1175 -12 -21 -39 -44 -65 -58 l-44 -22
-1196 0 -1196 0 -44 22 c-75 38 -84 66 -88 252 -3 113 0 161 8 170 9 8 15 6
24 -8 27 -45 74 -90 111 -107 37 -17 84 -19 709 -19 662 0 670 0 714 21 83 41
128 160 88 237 -9 17 -16 33 -16 35 0 3 33 6 73 9 89 4 145 35 177 98 24 46
26 133 5 170 -19 34 -19 37 10 44 39 10 92 63 111 111 46 123 -44 255 -174
255 -23 0 -42 2 -42 4 0 2 7 17 15 32 17 34 20 110 4 151 -13 35 -54 79 -94
101 -26 15 -83 17 -474 20 l-444 3 33 34 c78 81 67 232 -22 298 -67 49 -136
59 -204 28 -23 -11 -120 -84 -215 -163 -96 -79 -209 -172 -252 -207 -43 -35
-86 -79 -95 -97 -9 -21 -23 -34 -34 -34 -18 0 -19 18 -16 468 l3 467 24 39
c15 24 40 45 65 57 39 18 92 19 1236 19 1144 0 1197 -1 1236 -19z m-1790 -624
c28 -26 37 -42 41 -78 7 -61 -12 -95 -86 -155 -65 -53 -79 -77 -61 -99 11 -13
87 -15 509 -15 384 -1 501 -4 519 -14 30 -16 62 -65 62 -94 0 -34 -29 -91 -54
-105 -15 -9 -132 -13 -415 -17 -353 -4 -395 -7 -404 -22 -8 -12 -7 -21 2 -32
12 -14 67 -16 488 -16 508 0 522 -1 557 -51 27 -39 21 -103 -13 -141 l-29 -33
-493 -3 c-338 -2 -497 -6 -506 -14 -22 -18 -15 -48 13 -58 15 -6 196 -10 443
-10 406 0 419 -1 444 -20 58 -46 51 -156 -11 -187 -9 -4 -212 -10 -451 -13
-399 -5 -435 -6 -445 -22 -8 -13 -8 -23 0 -35 10 -16 40 -18 327 -23 297 -5
316 -6 337 -25 13 -11 29 -34 36 -52 18 -42 1 -97 -39 -127 -28 -21 -36 -21
-683 -24 -723 -3 -708 -4 -742 59 -40 77 -46 79 -197 79 l-135 0 0 430 0 430
125 0 c143 0 168 8 196 62 18 36 91 100 412 363 111 91 116 93 175 94 34 1 49
-5 78 -32z m-1078 -356 c11 -7 14 -108 13 -545 0 -296 -3 -542 -6 -547 -4 -5
-24 -9 -45 -9 l-39 0 -3 123 c-2 67 -2 317 0 555 l3 432 32 0 c18 0 38 -4 45
-9z"/>
</g>
</svg>
