<?xml version="1.0" standalone="no"?>
<!DOCTYPE svg PUBLIC "-//W3C//DTD SVG 20010904//EN"
 "http://www.w3.org/TR/2001/REC-SVG-20010904/DTD/svg10.dtd">
<svg version="1.0" xmlns="http://www.w3.org/2000/svg"
 width="500.000000pt" height="500.000000pt" viewBox="0 0 500.000000 500.000000"
 preserveAspectRatio="xMidYMid meet">

<g transform="translate(0.000000,500.000000) scale(0.100000,-0.100000)"
fill="#000000" stroke="none">
<path d="M1952 4224 c-51 -35 -8 -117 50 -95 42 16 50 59 18 91 -24 24 -38 25
-68 4z"/>
<path d="M2138 4089 c-21 -12 -24 -69 -6 -87 20 -20 65 -14 82 10 21 30 20 44
-4 68 -22 22 -46 25 -72 9z"/>
<path d="M1812 3834 c-32 -22 -31 -88 3 -110 30 -19 81 -11 95 16 38 70 -34
139 -98 94z"/>
<path d="M2304 3760 c-29 -11 -54 -49 -54 -78 0 -31 52 -82 84 -82 14 0 37 11
52 24 69 59 1 171 -82 136z"/>
<path d="M1979 3611 c-40 -40 -40 -89 0 -133 24 -27 36 -33 71 -33 35 0 47 6
71 33 40 44 40 93 0 133 -23 23 -38 29 -71 29 -33 0 -48 -6 -71 -29z"/>
<path d="M3285 3441 c-48 -20 -60 -48 -63 -147 l-4 -94 -444 0 -444 0 0 90 0
90 -155 0 -154 0 -3 -87 -3 -88 -156 -3 c-169 -3 -181 -7 -181 -57 -1 -50 12
-54 181 -57 l156 -3 3 -231 2 -230 -355 -551 c-224 -349 -355 -560 -355 -576
0 -14 9 -35 19 -48 l19 -24 815 -3 c812 -2 814 -2 840 19 54 42 48 53 -224
475 -137 214 -265 412 -283 439 -18 28 -63 96 -100 153 l-66 103 0 239 0 240
445 0 445 0 0 -1025 0 -1025 -884 0 -883 0 -34 -23 c-101 -67 -79 -214 37
-246 55 -15 1923 -15 1978 0 77 21 121 99 97 172 -14 41 -56 83 -94 92 l-27 7
2 1022 3 1021 128 5 c134 5 147 10 147 55 0 45 -13 50 -147 55 l-128 5 -5 95
c-3 52 -9 101 -14 109 -8 13 -67 42 -83 40 -4 0 -17 -4 -28 -8z m-1005 -176
l0 -66 -107 3 -108 3 -3 63 -3 62 111 0 110 0 0 -65z m0 -425 l5 -245 66 -100
c260 -395 633 -983 633 -1000 1 -20 -6 -20 -810 -23 -735 -2 -812 -1 -818 14
-4 10 116 204 349 564 l355 549 0 239 c0 131 3 242 7 246 4 4 52 5 107 4 l101
-3 5 -245z"/>
<path d="M1898 1963 c-202 -202 -368 -371 -368 -375 0 -5 286 -8 635 -8 628 0
635 0 635 20 0 24 -493 715 -517 724 -13 5 -105 -81 -385 -361z"/>
</g>
</svg>
