<?xml version="1.0" standalone="no"?>
<!DOCTYPE svg PUBLIC "-//W3C//DTD SVG 20010904//EN"
 "http://www.w3.org/TR/2001/REC-SVG-20010904/DTD/svg10.dtd">
<svg version="1.0" xmlns="http://www.w3.org/2000/svg"
 width="500.000000pt" height="500.000000pt" viewBox="0 0 500.000000 500.000000"
 preserveAspectRatio="xMidYMid meet">

<g transform="translate(0.000000,500.000000) scale(0.100000,-0.100000)"
fill="#000000" stroke="none">
<path d="M2459 4529 c-61 -14 -150 -57 -196 -95 -53 -43 -119 -153 -140 -231
-18 -69 -13 -191 12 -270 18 -61 67 -128 115 -160 81 -55 291 -89 385 -63 65
18 72 37 57 158 -19 149 -17 169 17 201 38 36 118 66 214 81 75 12 77 13 71
39 -13 60 -75 168 -126 220 -101 102 -272 153 -409 120z"/>
<path d="M2864 4100 c-61 -12 -130 -48 -141 -73 -6 -13 -7 -46 -2 -82 21 -159
21 -173 9 -209 -18 -55 -59 -70 -185 -69 -55 0 -126 6 -158 12 -32 7 -61 11
-64 8 -2 -3 20 -24 50 -46 120 -91 270 -107 401 -42 121 59 191 151 218 285
11 59 3 136 -21 199 -11 29 -29 32 -107 17z"/>
<path d="M2197 3540 c-52 -13 -104 -41 -162 -88 -90 -72 -170 -264 -227 -543
-20 -98 -23 -144 -23 -319 1 -319 28 -425 132 -520 61 -56 106 -72 243 -90
221 -29 596 -92 606 -103 6 -7 20 -37 31 -67 68 -181 231 -579 248 -604 43
-64 153 -92 242 -62 82 27 136 103 137 191 1 41 -18 97 -103 310 -57 143 -126
316 -153 385 -96 244 -87 238 -470 299 l-293 47 1 86 c0 47 7 133 14 192 l13
107 -84 78 c-141 132 -269 329 -269 417 0 122 123 206 237 163 42 -16 71 -47
109 -120 19 -36 48 -79 65 -94 l29 -29 0 71 c0 121 -41 213 -119 267 -43 30
-139 42 -204 26z"/>
<path d="M2217 3392 c-40 -10 -85 -58 -98 -105 -10 -38 -8 -45 32 -125 76
-151 235 -322 391 -424 154 -100 282 -144 487 -168 118 -14 180 -9 226 20 39
24 55 57 55 116 0 36 -6 51 -34 81 l-33 37 -119 7 c-157 10 -245 31 -348 84
-173 88 -294 207 -391 384 -41 75 -101 108 -168 93z"/>
<path d="M448 3252 c-15 -2 -39 -17 -53 -34 l-25 -30 2 -570 3 -570 28 -24 28
-24 580 0 580 0 24 25 c14 13 25 30 25 37 0 7 1 267 2 577 l3 563 -28 24 c-22
19 -41 24 -85 25 -136 3 -1060 4 -1084 1z"/>
<path d="M3695 2814 c-50 -19 -85 -52 -121 -117 -38 -68 -40 -169 -7 -233 44
-83 139 -144 224 -144 44 0 52 6 77 56 48 94 47 308 -1 404 -22 45 -22 45 -77
47 -30 1 -73 -5 -95 -13z"/>
<path d="M3344 2648 c-10 -35 -42 -71 -82 -95 -33 -21 -50 -23 -169 -23 -108
0 -133 -3 -133 -14 0 -17 56 -66 76 -66 7 0 55 16 106 35 51 19 93 33 95 32 5
-5 135 -380 198 -572 54 -162 148 -432 184 -528 l11 -29 49 44 c107 97 225
138 391 138 127 -1 172 -10 270 -57 59 -29 94 -56 164 -126 72 -73 92 -88 105
-80 26 17 23 35 -16 101 -120 196 -308 302 -577 325 -28 2 -33 9 -64 87 -40
101 -125 232 -187 289 -52 48 -171 128 -231 154 l-41 19 -63 189 c-34 104 -66
192 -71 194 -4 3 -11 -5 -15 -17z"/>
<path d="M750 1880 c-18 -18 -20 -33 -20 -140 0 -107 2 -122 20 -140 11 -11
29 -20 41 -20 16 0 19 -4 14 -17 -88 -209 -185 -562 -185 -674 l0 -29 144 0
144 0 -5 73 c-18 244 115 471 344 585 l96 47 161 0 c184 -1 214 -9 338 -91 85
-57 147 -128 198 -225 53 -102 73 -191 68 -301 l-4 -88 681 0 681 0 0 100 -1
100 -548 0 -548 0 -29 63 c-34 75 -73 204 -94 317 -21 110 -20 127 10 163 25
29 26 34 22 143 -2 93 -6 115 -22 133 -19 21 -20 21 -753 21 -720 0 -733 0
-753 -20z"/>
<path d="M4015 1479 c-84 -8 -153 -33 -228 -83 -86 -57 -125 -103 -175 -204
-42 -86 -45 -99 -50 -191 -5 -116 10 -180 69 -288 62 -112 149 -182 289 -229
67 -22 225 -25 285 -5 82 27 161 70 206 109 50 44 118 149 145 222 22 62 30
204 14 271 -31 133 -137 274 -253 337 -105 56 -184 72 -302 61z m124 -316
c169 -54 187 -292 28 -375 -60 -31 -138 -30 -197 2 -157 88 -139 315 30 374
58 20 77 20 139 -1z"/>
<path d="M1350 1457 c-161 -55 -265 -155 -327 -314 -22 -57 -26 -84 -27 -168
0 -118 22 -194 83 -284 75 -110 143 -160 277 -206 161 -55 362 -11 491 109
115 106 165 222 165 381 0 198 -102 363 -282 455 -109 55 -265 67 -380 27z
m252 -305 c66 -29 101 -84 106 -166 3 -49 -1 -70 -20 -106 -63 -122 -215 -155
-315 -67 -75 66 -93 163 -47 256 29 57 51 76 116 97 52 17 98 13 160 -14z"/>
</g>
</svg>
