<?xml version="1.0" standalone="no"?>
<!DOCTYPE svg PUBLIC "-//W3C//DTD SVG 20010904//EN"
 "http://www.w3.org/TR/2001/REC-SVG-20010904/DTD/svg10.dtd">
<svg version="1.0" xmlns="http://www.w3.org/2000/svg"
 width="1524.000000pt" height="1421.000000pt" viewBox="0 0 1524.000000 1421.000000"
 preserveAspectRatio="xMidYMid meet">

<g transform="translate(0.000000,1421.000000) scale(0.100000,-0.100000)"
fill="#000000" stroke="none">
<path d="M46 14184 c-8 -31 -5 -37 18 -28 18 7 22 24 5 24 -6 0 -9 7 -5 15 3
8 2 15 -3 15 -5 0 -12 -12 -15 -26z"/>
<path d="M496 14201 c5 -5 164 -15 354 -21 190 -6 433 -15 540 -20 190 -8 984
-5 1332 5 95 3 418 10 718 16 300 6 563 14 585 19 22 4 -765 8 -1749 9 -1090
1 -1786 -3 -1780 -8z"/>
<path d="M4128 14203 c6 -2 18 -2 25 0 6 3 1 5 -13 5 -14 0 -19 -2 -12 -5z"/>
<path d="M8258 14203 c12 -2 32 -2 45 0 12 2 2 4 -23 4 -25 0 -35 -2 -22 -4z"/>
<path d="M8331 14205 c8 -7 586 -24 1044 -30 226 -3 480 -7 565 -10 391 -12
1291 -18 3192 -19 1619 -1 2060 -4 2070 -14 25 -25 38 -13 38 33 l0 45 -3457
0 c-1901 0 -3454 -2 -3452 -5z"/>
<path d="M15220 14070 c0 -19 3 -21 12 -12 9 9 9 15 0 24 -9 9 -12 7 -12 -12z"/>
<path d="M11270 13090 c-30 -4 -109 -15 -175 -24 -66 -9 -140 -23 -165 -31
-25 -7 -92 -28 -150 -45 -58 -17 -113 -36 -122 -41 -10 -5 -23 -9 -30 -9 -7 0
-35 -11 -63 -25 -27 -13 -57 -25 -65 -25 -25 -2 -262 -126 -410 -214 -107 -64
-264 -170 -273 -183 -4 -7 -13 -13 -18 -13 -20 0 -321 -231 -420 -322 -10 -10
-63 -57 -116 -105 -131 -118 -460 -446 -559 -558 -44 -49 -138 -155 -210 -235
-195 -217 -416 -484 -568 -685 -38 -49 -74 -94 -80 -100 -6 -5 -28 -32 -49
-60 -20 -27 -49 -63 -63 -80 -59 -69 -194 -245 -194 -253 0 -5 -11 -18 -25
-30 -14 -12 -25 -26 -25 -31 0 -9 -154 -209 -214 -277 -20 -23 -36 -44 -36
-48 0 -6 -106 -144 -143 -186 -7 -8 -41 -50 -76 -92 -35 -44 -73 -81 -86 -84
-13 -3 -117 -7 -232 -8 -224 -2 -427 -19 -477 -40 -18 -7 -57 -16 -87 -20 -30
-4 -68 -13 -83 -21 -15 -8 -44 -17 -64 -21 -20 -4 -54 -15 -74 -25 -21 -11
-44 -19 -51 -19 -8 0 -26 -9 -40 -20 -14 -11 -33 -20 -42 -20 -28 0 -184 -97
-277 -173 -49 -38 -88 -73 -88 -76 0 -3 -16 -24 -36 -46 -52 -59 -124 -164
-145 -212 -10 -24 -23 -43 -29 -43 -5 0 -10 -15 -10 -33 0 -21 -7 -36 -20 -45
-20 -12 -25 -37 -14 -66 6 -16 30 -22 36 -8 6 13 66 51 91 57 14 4 33 15 43
26 9 10 26 19 37 19 10 0 32 11 49 25 16 14 37 25 45 25 9 0 24 6 32 14 21 17
295 106 330 106 14 0 62 9 106 20 70 18 116 20 369 21 158 0 292 -3 297 -8 4
-4 -2 -25 -14 -45 -39 -64 -106 -163 -121 -178 -8 -8 -31 -40 -53 -71 -93
-136 -200 -275 -315 -410 -38 -44 -68 -83 -68 -87 0 -4 -17 -25 -37 -47 -21
-22 -69 -78 -108 -125 -92 -112 -145 -168 -361 -384 -269 -270 -294 -293 -374
-333 -35 -18 -94 -62 -140 -107 -14 -13 -35 -27 -47 -31 -13 -3 -23 -11 -23
-16 0 -5 -10 -13 -23 -18 -26 -11 -61 -37 -90 -68 -11 -13 -29 -23 -39 -23
-10 0 -35 -15 -55 -33 -54 -48 -110 -60 -213 -45 -68 9 -88 17 -111 39 -22 22
-41 29 -92 34 -90 10 -95 14 -71 64 10 23 27 44 37 47 28 9 19 24 -15 24 -25
0 -29 3 -18 10 12 8 11 10 -8 10 -16 0 -22 5 -20 18 2 13 -5 18 -29 20 -27 3
-33 7 -33 28 0 20 5 24 33 24 18 0 63 -8 100 -19 50 -14 67 -15 67 -6 0 13
-43 25 -91 25 -16 0 -29 4 -29 10 0 5 -18 14 -40 20 -33 9 -40 15 -40 35 0 20
6 25 35 31 19 3 35 10 35 15 0 16 -24 22 -89 24 -36 1 -87 7 -113 14 -26 6
-177 16 -335 21 -159 6 -405 15 -548 20 -359 15 -1960 15 -2205 1 -208 -12
-313 -17 -535 -27 l-140 -6 30 -24 c25 -20 28 -26 15 -34 -8 -5 -31 -10 -50
-10 -58 0 -80 -10 -80 -35 0 -19 7 -24 42 -30 23 -4 62 -16 87 -27 35 -15 42
-21 31 -28 -13 -8 -13 -10 -1 -10 8 0 22 -7 32 -16 17 -15 17 -18 2 -32 -10
-11 -12 -17 -4 -20 6 -2 11 -10 11 -18 0 -8 6 -14 13 -14 19 0 50 -40 35 -45
-56 -17 -195 -45 -230 -45 -69 0 -115 -17 -122 -44 -3 -14 -3 -32 0 -41 4 -9
8 -1459 9 -3223 1 -1764 2 -3239 3 -3279 1 -81 14 -116 39 -106 9 4 21 -1 29
-12 8 -11 32 -21 56 -24 23 -3 43 -11 45 -17 2 -5 -15 -20 -37 -33 -22 -12
-40 -24 -40 -27 0 -2 903 -4 2006 -4 l2005 0 -3 33 c-3 32 -3 32 52 39 30 3
95 6 145 7 49 1 165 8 258 17 103 10 173 12 180 7 7 -6 395 -11 937 -12 2239
-5 2508 -10 2545 -47 8 -9 15 -11 15 -5 0 21 19 11 22 -12 l3 -22 3448 -3
3447 -2 0 3615 c0 1988 -3 3615 -6 3615 -3 0 -19 -11 -36 -25 -16 -14 -39 -27
-51 -29 -79 -14 -388 -90 -413 -101 -18 -8 -49 -17 -70 -20 -22 -4 -64 -15
-94 -25 -30 -9 -93 -28 -140 -40 -47 -12 -105 -28 -130 -37 -25 -8 -70 -21
-102 -28 -31 -7 -61 -16 -67 -19 -6 -4 -41 -15 -78 -25 -98 -27 -203 -58 -238
-69 -40 -13 -152 -47 -245 -73 -41 -11 -95 -27 -120 -36 -25 -8 -70 -21 -100
-28 -70 -18 -186 -51 -225 -64 -39 -14 -134 -38 -212 -55 -34 -7 -68 -18 -75
-23 -7 -6 -31 -14 -53 -18 -22 -4 -61 -13 -87 -22 -43 -13 -119 -31 -298 -68
-36 -7 -85 -21 -109 -29 -24 -9 -60 -16 -81 -16 -21 0 -66 -9 -100 -20 -34
-11 -77 -20 -94 -20 -17 0 -57 -9 -89 -20 -31 -11 -79 -20 -107 -20 -28 0 -67
-7 -88 -16 -20 -8 -94 -22 -164 -29 -69 -8 -137 -19 -150 -24 -12 -6 -72 -15
-131 -21 -59 -5 -116 -14 -125 -19 -9 -5 -87 -14 -172 -20 -85 -7 -159 -16
-166 -22 -6 -5 -92 -14 -190 -19 -98 -6 -201 -15 -229 -21 -124 -25 -695 -38
-860 -19 -44 5 -165 16 -269 25 -104 8 -194 19 -200 24 -6 5 -72 14 -146 20
-75 6 -150 15 -167 20 -18 5 -76 15 -128 22 -52 6 -98 15 -101 20 -9 15 -41
10 -48 -6 -7 -20 -24 -19 -71 6 -46 25 -172 33 -167 12 1 -8 -10 -14 -30 -14
-27 -1 -28 -2 -8 -6 41 -7 52 -12 45 -23 -5 -8 -11 -7 -21 1 -11 9 -21 9 -40
0 -34 -15 -34 -15 -34 19 0 22 -5 30 -17 30 -15 0 -16 2 -3 10 8 5 44 10 80
11 l65 1 -50 8 c-27 5 -92 14 -142 21 -51 6 -93 16 -93 20 0 5 -25 9 -55 9
-34 0 -55 -4 -55 -11 0 -7 10 -9 26 -5 17 5 23 3 19 -4 -3 -5 2 -10 12 -10 25
0 53 -35 53 -65 0 -22 4 -25 40 -25 40 0 55 -15 23 -23 -10 -3 0 -6 22 -7 l40
-2 -60 -27 c-32 -15 -55 -30 -49 -33 5 -4 39 -10 74 -14 36 -4 67 -10 70 -13
11 -14 63 -31 93 -31 18 0 61 -9 95 -20 35 -11 68 -18 72 -15 5 3 11 1 15 -5
3 -5 17 -10 31 -10 18 0 24 -5 24 -22 0 -45 -10 -48 -121 -43 -57 3 -117 5
-133 5 -16 0 -49 10 -75 22 -39 19 -64 22 -176 23 -119 1 -160 7 -280 36 -22
5 -76 14 -120 20 -44 5 -84 14 -89 19 -6 6 -22 10 -36 10 -15 0 -53 9 -85 20
-33 11 -84 23 -114 26 -31 3 -67 14 -81 23 -15 11 -55 20 -97 24 -40 4 -85 12
-100 18 -15 6 -37 15 -48 20 -11 4 -36 11 -55 15 -19 3 -44 13 -55 20 -11 8
-40 14 -64 14 -43 0 -82 6 -216 31 -33 6 -78 12 -100 14 -45 2 -158 36 -204
60 -17 8 -40 15 -51 15 -13 0 -24 8 -27 19 -4 15 -18 20 -65 25 -33 4 -72 12
-86 17 -15 6 -49 15 -77 19 -55 10 -156 33 -250 57 -33 8 -98 19 -145 24 -143
14 -153 17 -145 48 3 14 22 41 43 58 20 18 46 42 58 53 12 11 24 20 27 20 3 0
29 24 59 53 29 29 61 56 71 60 11 4 21 16 24 27 3 11 14 20 24 20 12 0 19 7
19 20 0 11 6 20 13 20 8 0 19 11 25 24 6 13 98 113 205 222 159 163 348 366
402 432 5 7 34 38 64 70 29 31 106 118 170 192 65 74 131 151 148 170 120 137
262 303 283 331 22 29 57 72 173 212 67 81 152 172 167 179 8 4 166 7 350 8
184 1 360 6 390 10 217 35 309 61 460 133 88 41 129 68 233 152 88 70 178 170
205 225 6 14 16 32 21 40 29 47 55 112 63 160 20 117 21 140 5 146 -16 6 -70
-18 -100 -44 -22 -20 -53 -38 -99 -58 -21 -10 -38 -21 -38 -25 0 -4 -17 -13
-37 -20 -21 -6 -42 -15 -48 -19 -12 -10 -113 -46 -180 -65 -209 -58 -359 -75
-657 -75 -141 0 -263 3 -272 6 -9 3 -16 15 -16 25 0 19 73 128 141 210 22 26
39 51 39 56 0 5 12 20 26 34 14 13 35 39 47 59 19 30 96 136 127 172 5 7 35
47 67 88 31 41 71 91 89 110 18 19 43 49 56 67 13 18 39 54 57 80 28 38 170
219 221 280 5 6 52 64 104 127 52 63 106 128 119 143 14 15 79 91 145 169 238
279 610 653 860 865 35 30 91 78 125 107 34 29 80 64 102 79 22 15 63 46 92
68 128 98 161 123 222 163 35 23 66 42 67 42 2 0 26 16 52 34 26 19 59 40 72
46 14 6 48 24 75 40 68 41 380 195 435 215 25 9 65 24 90 32 25 8 57 21 72 29
14 8 32 14 39 14 8 0 36 9 64 19 55 21 141 44 250 66 39 7 84 18 100 24 17 6
71 15 120 20 50 6 133 17 185 25 52 9 115 13 140 10 37 -5 50 -2 70 15 24 20
24 21 6 32 -10 6 -35 26 -55 43 -73 65 -202 122 -309 137 -37 5 -83 14 -102
19 -50 13 -324 20 -390 10z m-7162 -6188 c8 -7 12 -15 9 -18 -7 -8 -47 15 -47
26 0 13 21 8 38 -8z m242 -241 c0 -15 -19 -23 -38 -16 -14 5 -14 7 -2 15 19
12 40 13 40 1z m190 -5 c0 -8 -25 -27 -55 -41 -30 -15 -59 -33 -66 -41 -12
-14 -59 -20 -59 -6 1 17 29 43 59 53 17 6 36 20 42 30 12 23 79 27 79 5z
m10569 -62 c-9 -12 -28 -13 -93 -9 -137 10 -122 33 24 37 78 3 91 -2 69 -28z
m-10848 -20 c12 -14 11 -16 -5 -13 -10 2 -26 15 -35 28 -15 23 -15 24 5 13 11
-6 27 -18 35 -28z m10883 -26 c7 -31 -7 -42 -33 -26 -25 15 -27 28 -6 28 8 0
15 5 15 10 0 19 18 10 24 -12z m-10818 -8 c8 0 14 -4 14 -10 0 -5 -13 -10 -30
-10 -21 0 -30 5 -30 16 0 11 5 14 16 10 9 -3 22 -6 30 -6z m1054 -14 c0 -20
-26 -27 -40 -11 -8 10 -8 14 2 18 24 10 38 7 38 -7z m9289 5 c11 -7 10 -11 -7
-20 -27 -14 -58 -14 -85 1 l-22 12 25 7 c36 10 73 10 89 0z m-10444 -37 c13
-5 14 -8 3 -15 -17 -11 -68 -12 -68 -1 0 21 31 29 65 16z m1085 -12 c0 -5 -3
-12 -7 -16 -5 -4 -8 -13 -8 -19 0 -14 -39 -21 -62 -13 -13 5 -9 12 17 31 34
25 60 32 60 17z m9497 2 c-3 -3 -12 -4 -19 -1 -8 3 -5 6 6 6 11 1 17 -2 13 -5z
m-319 -26 c26 -26 -2 -43 -46 -27 -26 10 -26 11 -8 25 24 17 38 18 54 2z
m-9328 -63 c0 -8 -4 -15 -9 -15 -13 0 -22 16 -14 24 11 11 23 6 23 -9z m-1150
-25 c0 -5 -9 -10 -21 -10 -11 0 -17 5 -14 10 3 6 13 10 21 10 8 0 14 -4 14
-10z m-115 -50 c-3 -5 -15 -10 -26 -10 -10 0 -19 5 -19 10 0 6 12 10 26 10 14
0 23 -4 19 -10z m-228 -6 c-3 -3 -12 -4 -19 -1 -8 3 -5 6 6 6 11 1 17 -2 13
-5z m153 -34 c0 -5 -17 -10 -37 -10 -28 0 -34 3 -23 10 20 13 60 13 60 0z
m9853 -7 c-7 -2 -19 -2 -25 0 -7 3 -2 5 12 5 14 0 19 -2 13 -5z m-10023 -43
c-8 -5 -24 -10 -35 -10 -17 0 -17 2 -5 10 8 5 24 10 35 10 17 0 17 -2 5 -10z
m9856 -5 c-25 -19 -52 -19 -60 0 -4 12 3 15 37 15 39 -1 41 -2 23 -15z m-9996
-29 c0 -16 -35 -27 -56 -19 -12 4 -11 8 3 19 23 18 53 18 53 0z m1323 -26 c-3
-11 -16 -23 -29 -26 -12 -3 -30 -17 -39 -30 -11 -18 -24 -24 -51 -24 -43 0
-42 19 2 33 16 6 33 16 37 23 4 8 15 14 23 14 8 0 17 7 20 15 4 8 14 15 24 15
13 0 17 -5 13 -20z m-1448 -20 c-46 -12 -103 -12 -85 0 8 5 38 9 65 9 44 -1
46 -2 20 -9z m5175 0 c0 -13 -11 -13 -30 0 -12 8 -11 10 8 10 12 0 22 -4 22
-10z m4793 3 c-7 -2 -21 -2 -30 0 -10 3 -4 5 12 5 17 0 24 -2 18 -5z m-4648
-43 c-3 -5 -25 -10 -48 -10 -31 0 -38 3 -27 10 20 13 83 13 75 0z m4420 0 c-3
-5 -30 -9 -58 -8 l-52 1 45 7 c69 11 72 11 65 0z m58 3 c-7 -2 -19 -2 -25 0
-7 3 -2 5 12 5 14 0 19 -2 13 -5z m-8558 -53 c-3 -5 -10 -10 -16 -10 -5 0 -9
5 -9 10 0 6 7 10 16 10 8 0 12 -4 9 -10z m3935 -2 c0 -5 -13 -8 -30 -8 -16 0
-30 4 -30 10 0 5 13 8 30 7 16 -1 30 -5 30 -9z m-6021 -24 c8 -7 -71 -15 -86
-9 -16 7 -15 9 7 15 22 7 68 3 79 -6z m-379 -4 c0 -5 -19 -10 -42 -10 -32 0
-39 3 -28 10 20 13 70 13 70 0z m143 0 c-14 -6 -32 -6 -45 0 -19 7 -15 9 22 9
37 0 41 -2 23 -9z m564 4 c-3 -3 -12 -4 -19 -1 -8 3 -5 6 6 6 11 1 17 -2 13
-5z m9944 -7 c-1 -12 -15 -9 -19 4 -3 6 1 10 8 8 6 -3 11 -8 11 -12z m-8371
-87 c0 -17 -43 -28 -67 -17 -12 5 -20 14 -17 18 7 13 84 11 84 -1z m-2421 -51
c-16 -10 -23 -4 -14 10 3 6 11 8 17 5 6 -4 5 -9 -3 -15z m96 -31 c11 -2 23
-12 28 -22 9 -22 0 -36 -12 -18 -4 7 -12 12 -17 10 -5 -1 -26 4 -46 11 -47 16
-51 36 -5 27 17 -3 41 -7 52 -8z m10365 2 c0 -5 -4 -10 -10 -10 -5 0 -10 5
-10 10 0 6 5 10 10 10 6 0 10 -4 10 -10z m-611 -39 c24 -15 -5 -21 -70 -14
-50 5 -58 8 -39 14 36 10 93 10 109 0z m-7834 -11 c-28 -12 -55 -12 -55 0 0 6
17 10 38 9 30 0 33 -2 17 -9z m-55 -30 c0 -5 -12 -10 -27 -10 -22 0 -25 2 -13
10 20 13 40 13 40 0z m180 -5 c0 -17 -2 -18 -25 -9 -13 5 -14 8 -3 15 19 13
28 11 28 -6z m7440 6 c0 -11 -124 -29 -156 -23 -30 6 -31 19 -1 25 43 8 157 7
157 -2z m-9255 -11 c-3 -5 -22 -10 -41 -10 -19 0 -34 5 -34 10 0 6 18 10 41
10 24 0 38 -4 34 -10z m1484 -24 c20 -24 -9 -37 -55 -25 l-39 11 35 13 c47 17
46 17 59 1z m7459 -5 c11 -7 10 -10 -3 -15 -26 -9 -115 -7 -115 3 0 18 94 28
118 12z m-8798 -16 c0 -9 -9 -15 -24 -15 -28 0 -43 16 -24 23 26 11 48 7 48
-8z m174 -49 c-3 -8 2 -16 13 -19 12 -3 9 -5 -9 -6 -16 0 -28 4 -28 9 0 6 -9
10 -19 10 -11 0 -23 5 -26 10 -4 6 10 10 34 10 31 0 39 -3 35 -14z m1026 -525
c0 -10 -44 -41 -58 -41 -7 0 -9 30 -3 48 3 7 61 1 61 -7z m-165 -71 c3 -5 2
-10 -4 -10 -5 0 -13 5 -16 10 -3 6 -2 10 4 10 5 0 13 -4 16 -10z m5248 -7 c-7
-2 -19 -2 -25 0 -7 3 -2 5 12 5 14 0 19 -2 13 -5z m-5333 -33 c12 -7 6 -13
-28 -27 -37 -16 -43 -23 -48 -55 -8 -49 -34 -52 -34 -3 0 24 6 37 20 45 11 6
18 15 15 20 -6 10 23 29 45 30 8 0 22 -5 30 -10z m5425 -10 c0 -22 -29 -18
-33 3 -3 14 1 18 15 15 10 -2 18 -10 18 -18z m2000 2 c0 -18 -20 -15 -23 4 -3
10 1 15 10 12 7 -3 13 -10 13 -16z m-6915 -2 c0 -5 -2 -10 -4 -10 -3 0 -8 5
-11 10 -3 6 -1 10 4 10 6 0 11 -4 11 -10z m5055 -10 c3 -5 1 -10 -4 -10 -6 0
-11 5 -11 10 0 6 2 10 4 10 3 0 8 -4 11 -10z m-600 -40 c3 -5 -1 -10 -9 -10
-9 0 -16 5 -16 10 0 6 4 10 9 10 6 0 13 -4 16 -10z m-5123 -102 c5 -39 -4 -78
-18 -78 -15 0 -20 54 -8 84 9 23 22 20 26 -6z m5648 16 c0 -3 -7 -12 -15 -20
-16 -17 -18 -14 -9 10 6 15 24 23 24 10z m2220 -31 c-1 -31 -3 -35 -11 -20 -6
9 -7 26 -4 37 10 30 15 24 15 -17z m-7524 6 c8 -14 -11 -33 -25 -25 -11 7 -4
36 9 36 5 0 12 -5 16 -11z m4799 -9 c-28 -12 -47 -12 -40 0 3 6 18 10 33 9 24
0 25 -1 7 -9z m722 -27 c-3 -10 -5 -4 -5 12 0 17 2 24 5 18 2 -7 2 -21 0 -30z
m1413 21 c0 -8 -5 -12 -10 -9 -6 4 -8 11 -5 16 9 14 15 11 15 -7z m370 -2 c0
-18 -18 -42 -30 -42 -4 0 -5 14 -2 30 5 32 32 42 32 12z m-1907 -27 c-3 -8 -9
-15 -14 -15 -10 0 -12 24 -3 33 11 11 24 -3 17 -18z m-673 -11 c0 -8 -5 -12
-10 -9 -6 4 -8 11 -5 16 9 14 15 11 15 -7z m-4610 -8 c0 -8 12 -19 28 -24 25
-10 23 -10 -20 -11 -48 -1 -53 3 -42 33 8 20 34 21 34 2z m6876 -15 c23 -18
23 -20 6 -40 -16 -20 -18 -21 -39 -6 -30 21 -30 65 0 65 5 0 20 -9 33 -19z
m-1780 -1 c38 -15 20 -28 -51 -36 -41 -5 -64 -13 -73 -26 -16 -22 -82 -26 -82
-4 0 15 21 26 50 26 11 0 23 6 27 13 4 8 28 18 53 24 25 6 46 11 47 12 1 0 14
-4 29 -9z m-4921 -19 c-16 -15 -88 -18 -93 -3 -2 8 12 12 49 12 32 0 49 -4 44
-9z m6930 -42 c0 -18 -69 -29 -112 -17 -47 13 -41 24 17 32 28 4 50 12 50 18
0 6 9 5 23 -4 12 -9 22 -22 22 -29z m-2300 2 c7 -12 -31 -25 -45 -16 -6 4 -8
11 -5 16 8 12 42 12 50 0z m-4880 -31 c9 -15 -17 -90 -32 -90 -14 0 -19 80 -6
93 10 10 31 8 38 -3z m2980 0 c4 -6 -6 -10 -22 -10 -22 0 -25 2 -13 10 19 12
27 12 35 0z m215 -16 c0 -9 -11 -14 -30 -14 -33 0 -43 26 -12 32 24 6 42 -2
42 -18z m844 11 c4 -11 -1 -15 -19 -15 -25 0 -39 12 -28 24 12 11 41 6 47 -9z
m2816 0 c-1 -16 -48 -25 -54 -10 -2 7 -2 16 2 19 10 10 53 2 52 -9z m1057 4
c16 -16 -5 -58 -31 -64 -59 -11 -76 -12 -76 0 0 13 34 46 65 63 25 14 29 14
42 1z m-6952 -9 c-3 -5 -13 -10 -21 -10 -8 0 -14 5 -14 10 0 6 9 10 21 10 11
0 17 -4 14 -10z m1845 0 c-20 -13 -43 -13 -35 0 3 6 16 10 28 10 18 0 19 -2 7
-10z m-100 -36 c0 -14 -21 -19 -33 -7 -9 9 13 34 24 27 5 -3 9 -12 9 -20z
m4414 10 c13 -33 -19 -42 -93 -28 -40 8 -40 21 1 32 56 14 85 13 92 -4z
m-4004 -4 c24 -1 24 -1 6 -15 -23 -18 -82 -20 -92 -4 -9 15 16 30 41 24 11 -2
31 -5 45 -5z m2018 1 c10 -6 7 -12 -12 -24 -33 -22 -46 -21 -46 1 0 31 28 42
58 23z m1237 -1 c6 0 4 -4 -3 -9 -16 -10 -90 -13 -104 -5 -19 12 17 24 57 20
22 -3 45 -5 50 -6z m-5815 -10 c0 -12 -28 -25 -36 -17 -9 9 6 27 22 27 8 0 14
-5 14 -10z m530 1 c0 -5 -4 -21 -9 -34 -7 -19 -16 -23 -40 -22 -17 1 -34 5
-39 9 -8 9 26 36 45 36 7 0 13 5 13 10 0 6 7 10 15 10 8 0 15 -4 15 -9z m450
5 c0 -11 -19 -15 -25 -6 -3 5 1 10 9 10 9 0 16 -2 16 -4z m435 -6 c8 -13 -20
-24 -41 -16 -20 8 -9 26 16 26 10 0 22 -5 25 -10z m3905 6 c0 -11 -19 -15 -25
-6 -3 5 1 10 9 10 9 0 16 -2 16 -4z m-6308 -68 c-8 -8 -13 -3 -17 15 -10 38 6
58 18 23 6 -18 6 -31 -1 -38z m2178 38 c0 -15 -18 -31 -26 -23 -7 7 7 37 17
37 5 0 9 -6 9 -14z m1504 -12 c7 -18 -21 -31 -35 -17 -13 13 0 43 16 37 7 -3
16 -12 19 -20z m-1631 -20 c-6 -16 -33 -7 -33 11 0 17 23 25 32 12 3 -6 4 -16
1 -23z m1170 24 c2 -7 0 -21 -5 -31 -14 -26 -3 -45 27 -49 36 -4 36 -22 0 -26
-27 -3 -31 1 -42 37 -7 23 -13 50 -13 61 0 22 26 28 33 8z m1313 -3 c17 -13
15 -14 -35 -15 -50 0 -53 1 -35 15 24 19 45 19 70 0z m848 9 c30 -12 16 -24
-26 -24 -42 1 -43 1 -18 15 30 17 25 16 44 9z m2222 -9 c14 -13 13 -15 -10
-15 -16 0 -26 6 -26 15 0 8 5 15 11 15 6 0 17 -7 25 -15z m-2356 -5 c0 -5 -12
-10 -27 -10 -22 0 -25 2 -13 10 20 13 40 13 40 0z m1220 0 c0 -5 -21 -10 -47
-9 -36 0 -43 3 -28 9 28 12 75 12 75 0z m445 0 c3 -5 -3 -10 -14 -10 -12 0
-21 5 -21 10 0 6 6 10 14 10 8 0 18 -4 21 -10z m495 1 c0 -10 -128 -27 -136
-18 -4 3 -3 10 1 16 8 13 135 15 135 2z m1329 -31 c64 -47 57 -39 65 -72 9
-41 -23 -37 -70 7 -21 21 -56 40 -80 46 -38 10 -41 13 -29 26 8 8 15 19 15 24
0 21 50 6 99 -31z m-8221 -18 c-6 -27 -23 -16 -26 18 -2 33 -2 34 13 15 9 -11
14 -26 13 -33z m831 26 c12 -16 11 -18 -7 -18 -15 0 -19 5 -15 20 3 12 6 19 7
18 1 -2 8 -11 15 -20z m1474 15 c-19 -4 -23 -14 -29 -71 -5 -39 -10 -55 -12
-39 -2 15 -9 27 -16 27 -7 0 -19 12 -26 26 -13 24 -12 27 10 45 15 11 39 18
60 17 22 0 27 -2 13 -5z m572 -3 c-3 -5 -19 -10 -36 -10 -16 0 -29 5 -29 10 0
6 16 10 36 10 21 0 33 -4 29 -10z m4772 -25 c3 -9 -25 -27 -79 -52 -4 -2 -12
6 -18 17 -17 32 4 52 53 48 22 -2 42 -8 44 -13z m-6562 -4 c3 -5 1 -12 -5 -16
-14 -9 -52 4 -45 16 8 12 42 12 50 0z m350 -1 c3 -5 -1 -10 -10 -10 -9 0 -13
5 -10 10 3 6 8 10 10 10 2 0 7 -4 10 -10z m532 4 c-11 -12 -77 -15 -77 -4 0 5
19 10 42 10 23 0 38 -3 35 -6z m1026 -1 c-7 -2 -21 -2 -30 0 -10 3 -4 5 12 5
17 0 24 -2 18 -5z m3957 -3 c0 -5 -7 -10 -15 -10 -8 0 -15 5 -15 10 0 6 7 10
15 10 8 0 15 -4 15 -10z m-3680 -10 c0 -5 -4 -10 -9 -10 -6 0 -13 5 -16 10 -3
6 1 10 9 10 9 0 16 -4 16 -10z m1947 -14 c33 -29 28 -39 -15 -30 -25 5 -32 12
-32 30 0 30 12 30 47 0z m-1763 8 c9 -3 16 -12 16 -19 0 -16 -35 -29 -50 -20
-14 9 -13 32 3 38 6 3 13 6 14 6 1 1 8 -2 17 -5z m-2464 -24 c23 -23 64 -41
95 -44 21 -1 36 -46 16 -46 -6 0 -11 7 -11 15 0 20 -29 19 -52 -2 -17 -15 -19
-15 -33 3 -8 10 -15 24 -15 31 0 12 -11 17 -68 28 -27 6 -31 9 -21 21 17 21
66 17 89 -6z m3014 11 c12 -5 24 -25 31 -54 11 -43 10 -47 -7 -47 -12 0 -18 7
-18 24 0 30 -19 45 -64 53 -29 5 -34 8 -25 19 12 15 52 17 83 5z m541 -2 c10
-15 -1 -23 -35 -25 -33 -2 -33 -2 -24 20 7 18 49 22 59 5z m2065 -8 c0 -12
-11 -23 -32 -30 -17 -6 -40 -19 -50 -28 -17 -15 -18 -15 -18 5 0 12 5 22 10
22 6 0 10 7 10 15 0 17 28 34 58 35 15 0 22 -6 22 -19z m174 5 c14 3 33 1 43
-5 14 -8 3 -10 -49 -11 -62 0 -79 6 -62 23 4 3 15 2 25 -4 10 -5 30 -7 43 -3z
m-4354 -6 c11 -7 3 -10 -28 -10 -26 0 -41 4 -37 10 8 13 45 13 65 0z m-2150
-4 c0 -2 -9 -6 -20 -9 -11 -3 -20 -1 -20 4 0 5 9 9 20 9 11 0 20 -2 20 -4z
m1041 -18 c-5 -13 -15 -23 -22 -23 -8 0 -15 10 -17 23 -3 18 1 22 22 22 22 0
24 -3 17 -22z m429 18 c0 -11 -19 -15 -25 -6 -3 5 1 10 9 10 9 0 16 -2 16 -4z
m4683 -3 c-7 -2 -21 -2 -30 0 -10 3 -4 5 12 5 17 0 24 -2 18 -5z m-653 -23
c13 -9 13 -11 0 -20 -22 -14 -50 -12 -50 4 0 12 13 23 30 25 3 0 12 -4 20 -9z
m-5550 -10 c0 -5 -7 -10 -15 -10 -9 0 -20 -11 -25 -25 -13 -33 -20 -32 -20 4
0 20 6 31 18 34 30 8 42 7 42 -3z m963 -75 c-3 -13 -9 -22 -14 -19 -11 6 -12
65 -2 91 6 14 8 12 14 -14 3 -18 4 -44 2 -58z m2167 73 c0 -7 -4 -19 -9 -26
-6 -11 -9 -9 -14 7 -2 11 -2 22 1 25 10 10 22 6 22 -6z m1081 -25 c-7 -26 -27
-36 -25 -13 1 6 2 17 3 25 0 8 7 15 15 15 11 0 12 -7 7 -27z m3013 0 c-8 -35
-19 -47 -33 -39 -12 8 -15 49 -4 59 3 4 15 7 25 7 15 0 17 -5 12 -27z m-774 0
c2 -2 -4 -19 -15 -38 -17 -33 -22 -35 -67 -35 -29 0 -48 4 -48 11 0 7 11 9 30
6 28 -6 30 -4 40 34 10 35 14 39 33 33 12 -3 24 -8 27 -11z m-6616 -36 c-4
-12 -14 -27 -23 -34 -9 -6 -17 -16 -17 -22 -1 -6 -2 -15 -3 -21 -1 -11 -44
-14 -53 -4 -3 3 -4 14 -1 25 6 21 33 27 33 7 0 -13 21 18 40 60 12 29 33 19
24 -11z m-716 -13 c26 -18 21 -34 -11 -34 -32 0 -49 14 -41 33 8 21 23 21 52
1z m9011 -39 c-2 -53 -19 -80 -19 -31 0 14 -7 31 -15 40 -23 22 -18 41 11 44
24 2 25 0 23 -53z m-2151 29 l23 -7 -27 -13 c-14 -8 -33 -14 -41 -14 -11 0
-13 -7 -9 -27 6 -28 -7 -63 -19 -51 -3 3 -3 28 1 56 6 47 11 54 44 61 3 0 15
-2 28 -5z m-6058 -33 c0 -32 -14 -49 -25 -31 -9 15 3 60 15 60 6 0 10 -13 10
-29z m507 23 c-3 -3 -12 -4 -19 -1 -8 3 -5 6 6 6 11 1 17 -2 13 -5z m4198 -4
c-8 -13 -45 -13 -65 0 -11 7 -3 10 28 10 26 0 41 -4 37 -10z m1212 4 c-3 -3
-12 -4 -19 -1 -8 3 -5 6 6 6 11 1 17 -2 13 -5z m1793 -9 c-7 -8 -16 -15 -20
-15 -4 0 -10 7 -14 15 -4 11 2 15 21 15 21 0 24 -2 13 -15z m-2877 -16 c7 -26
-16 -35 -51 -19 l-27 12 30 13 c41 18 42 18 48 -6z m-5493 -15 c0 -16 -16 -19
-25 -4 -8 13 4 32 16 25 5 -4 9 -13 9 -21z m1240 6 c0 -5 -7 -10 -16 -10 -8 0
-12 5 -9 10 3 6 10 10 16 10 5 0 9 -4 9 -10z m377 -12 c-3 -8 -6 -5 -6 6 -1
11 2 17 5 13 3 -3 4 -12 1 -19z m4213 -4 c0 -14 -4 -23 -10 -19 -5 3 -10 15
-10 26 0 10 5 19 10 19 6 0 10 -12 10 -26z m1370 12 c0 -8 3 -22 6 -31 5 -13
2 -16 -12 -13 -16 3 -22 23 -15 53 3 12 21 4 21 -9z m1050 -1 c0 -8 -4 -15
-10 -15 -5 0 -10 7 -10 15 0 8 5 15 10 15 6 0 10 -7 10 -15z m-3036 -23 c8
-13 -13 -82 -24 -82 -11 0 -13 50 -4 74 7 17 20 21 28 8z m-3224 -29 c-1 -24
-2 -26 -11 -10 -5 9 -7 22 -4 27 10 17 15 11 15 -17z m537 17 c8 0 13 -6 10
-12 -4 -12 -25 -13 -55 -3 -7 3 -10 10 -7 16 4 6 14 8 22 5 8 -3 21 -6 30 -6z
m2823 1 c0 -13 -30 -18 -74 -13 -26 3 -34 7 -25 13 18 11 99 12 99 0z m-4070
-16 c0 -8 -4 -15 -10 -15 -5 0 -10 7 -10 15 0 8 5 15 10 15 6 0 10 -7 10 -15z
m1104 -7 c-9 -30 -10 -31 -28 -25 -12 5 -14 21 -7 45 1 1 10 2 22 2 16 0 19
-4 13 -22z m1893 -20 c-3 -7 -5 -2 -5 12 0 14 2 19 5 13 2 -7 2 -19 0 -25z
m3340 -5 c-3 -10 -5 -4 -5 12 0 17 2 24 5 18 2 -7 2 -21 0 -30z m56 30 c3 -5
-6 -16 -19 -26 -23 -17 -24 -17 -24 1 0 10 3 22 7 25 9 9 31 9 36 0z m-7048
-60 c0 -36 -4 -53 -12 -53 -7 0 -13 7 -13 15 0 8 -9 19 -20 25 -19 10 -27 49
-13 64 4 4 19 6 33 4 23 -3 25 -7 25 -55z m359 41 c6 -15 -17 -43 -36 -44 -13
0 -19 20 -13 40 8 24 40 26 49 4z m2298 -40 c-26 -32 -52 -40 -59 -18 -2 6 11
25 28 42 25 24 36 29 46 21 10 -9 8 -18 -15 -45z m3184 39 c-2 -11 -13 -19
-29 -21 -31 -4 -34 5 -9 24 24 19 41 17 38 -3z m1997 0 c15 -9 -5 -23 -33 -23
-30 0 -45 13 -35 30 6 9 47 5 68 -7z m-8053 -8 c0 -8 -4 -15 -10 -15 -5 0 -10
7 -10 15 0 8 5 15 10 15 6 0 10 -7 10 -15z m5657 -17 c-3 -7 -5 -2 -5 12 0 14
2 19 5 13 2 -7 2 -19 0 -25z m758 -1 c0 -39 -19 -38 -23 2 -3 24 0 32 10 29 7
-3 13 -17 13 -31z m1755 18 c11 -13 8 -15 -13 -15 -28 0 -44 15 -25 23 21 9
25 8 38 -8z m-5940 -5 c0 -5 -9 -10 -20 -10 -11 0 -20 5 -20 10 0 6 9 10 20
10 11 0 20 -4 20 -10z m2920 -6 c0 -11 -5 -14 -16 -10 -9 3 -27 6 -40 6 -14 0
-22 4 -19 10 3 6 22 10 41 10 25 0 34 -4 34 -16z m-4400 -35 c0 -5 -27 -9 -60
-9 -63 0 -84 16 -27 22 44 4 87 -2 87 -13z m2753 -5 c-4 -10 -9 -12 -15 -6
-12 12 -1 35 12 27 5 -3 6 -13 3 -21z m4697 10 c0 -8 -4 -12 -10 -9 -5 3 -10
10 -10 16 0 5 5 9 10 9 6 0 10 -7 10 -16z m-6316 -9 c-4 -8 -10 -15 -15 -15
-5 0 -9 7 -9 15 0 8 7 15 15 15 9 0 12 -6 9 -15z m652 -42 c-10 -26 -24 1 -18
35 5 26 5 26 15 5 5 -12 6 -30 3 -40z m494 46 c0 -16 -34 -49 -50 -48 -10 0
-11 2 -2 6 6 2 12 15 12 27 0 15 7 22 20 23 11 1 20 -2 20 -8z m1729 4 c0 -5
-4 -17 -9 -28 -8 -18 -9 -17 -9 8 -1 15 4 27 9 27 6 0 10 -3 9 -7z m221 -3
c-36 -12 -80 -12 -80 0 0 6 24 10 53 9 41 -1 47 -3 27 -9z m600 -78 c0 -34 -3
-43 -10 -32 -13 20 -13 93 0 85 6 -3 10 -27 10 -53z m548 36 c-2 -13 -7 -23
-13 -23 -5 0 -11 10 -13 23 -2 15 2 22 13 22 11 0 15 -7 13 -22z m2009 6 c5
-16 -57 -48 -69 -36 -16 16 -3 40 24 45 29 5 41 3 45 -9z m-7636 -37 c-8 -8
-11 -5 -11 9 0 27 14 41 18 19 2 -9 -1 -22 -7 -28z m5158 -34 c0 -47 -3 -62
-9 -47 -7 18 -2 114 6 114 2 0 4 -30 3 -67z m-4492 -5 c-2 -13 -4 -3 -4 22 0
25 2 35 4 23 2 -13 2 -33 0 -45z m-903 37 c10 -7 15 -18 12 -23 -6 -11 40 -22
91 -22 23 0 32 -4 27 -11 -16 -27 -164 21 -164 53 0 21 9 22 34 3z m2700 -40
c-1 -61 -15 -67 -37 -17 -20 46 -21 59 -4 65 32 14 42 2 41 -48z m4806 34 c0
-5 -6 -10 -12 -10 -7 -1 -23 -3 -35 -4 -13 -1 -23 2 -23 7 0 12 42 27 58 21 6
-3 12 -9 12 -14z m698 -51 c-5 -65 -28 -61 -28 5 0 29 3 57 7 61 13 12 24 -24
21 -66z m-3641 30 c-3 -7 -5 -2 -5 12 0 14 2 19 5 13 2 -7 2 -19 0 -25z m1200
10 c-3 -8 -6 -5 -6 6 -1 11 2 17 5 13 3 -3 4 -12 1 -19z m643 13 c0 -12 -20
-25 -27 -18 -7 7 6 27 18 27 5 0 9 -4 9 -9z m-3130 -11 c0 -5 -4 -10 -10 -10
-5 0 -10 5 -10 10 0 6 5 10 10 10 6 0 10 -4 10 -10z m-1640 -29 c0 -19 -25
-31 -47 -24 -31 11 -10 40 30 42 10 1 17 -6 17 -18z m640 -7 c0 -8 -6 -14 -14
-14 -18 0 -29 27 -13 33 16 6 27 -1 27 -19z m2187 8 c-9 -2 -15 -8 -12 -13 4
-5 -5 -9 -19 -9 -17 0 -24 -4 -20 -14 3 -9 -6 -15 -32 -19 -49 -8 -57 -1 -37
29 12 19 23 25 43 22 15 -2 32 1 38 8 6 7 21 10 34 6 19 -5 20 -7 5 -10z
m3160 2 c-3 -3 -12 -4 -19 -1 -8 3 -5 6 6 6 11 1 17 -2 13 -5z m-214 -28 c16
-12 16 -14 1 -20 -8 -3 -23 -6 -31 -6 -12 0 -13 3 -4 13 6 8 8 17 4 20 -12 13
12 7 30 -7z m-2256 -28 c-3 -7 -5 -2 -5 12 0 14 2 19 5 13 2 -7 2 -19 0 -25z
m-5407 13 c0 -18 -18 -21 -30 -6 -10 13 -9 15 9 15 11 0 21 -4 21 -9z m210 -5
c0 -22 -23 -36 -37 -21 -8 9 -9 15 0 24 15 15 37 14 37 -3z m6388 -4 c24 -21
29 -39 18 -70 -6 -17 -14 -22 -26 -19 -13 3 -20 -1 -22 -16 -5 -36 -43 -31
-50 8 -2 16 3 20 22 20 34 0 61 52 36 70 -9 7 -16 15 -16 19 0 11 17 6 38 -12z
m142 7 c0 -6 -9 -13 -19 -16 -11 -3 -21 -15 -23 -27 -2 -11 -7 -20 -13 -18
-15 4 -6 45 13 60 20 15 42 16 42 1z m788 -41 c-1 -26 -8 -44 -20 -52 -10 -6
-18 -16 -18 -23 0 -6 -13 -26 -29 -44 l-30 -32 -7 27 c-8 35 10 76 34 76 24 0
54 33 52 57 -4 32 0 44 10 38 6 -4 10 -25 8 -47z m-3163 4 c0 -46 -19 -44 -23
2 -3 28 0 37 10 34 7 -3 13 -19 13 -36z m-3172 -1 c2 -10 1 -25 -4 -32 -6 -10
-9 -4 -9 19 0 36 5 42 13 13z m-863 -1 c0 -5 -7 -10 -16 -10 -8 0 -12 5 -9 10
3 6 10 10 16 10 5 0 9 -4 9 -10z m4235 0 c-3 -5 -17 -10 -31 -10 -13 0 -24 5
-24 10 0 6 14 10 31 10 17 0 28 -4 24 -10z m-4325 -55 c0 -8 -4 -15 -9 -15
-13 0 -22 16 -14 24 11 11 23 6 23 -9z m5750 -5 c0 -11 -4 -20 -10 -20 -5 0
-10 9 -10 20 0 11 5 20 10 20 6 0 10 -9 10 -20z m-545 -32 c8 -40 -9 -93 -20
-66 -4 10 -11 15 -16 12 -5 -3 -9 10 -9 28 0 25 3 29 10 18 8 -12 10 -9 10 13
0 38 18 34 25 -5z m2725 3 c0 -3 -5 -13 -10 -21 -9 -13 -12 -12 -25 4 -19 25
-1 53 21 35 8 -6 14 -14 14 -18z m-8193 -40 c16 -9 16 -10 1 -11 -9 0 -20 -9
-23 -20 -10 -32 -25 -23 -21 13 2 17 5 41 6 52 1 19 2 19 10 -2 5 -12 17 -26
27 -32z m811 32 c-4 -22 -22 -20 -26 1 -2 10 3 16 13 16 10 0 15 -7 13 -17z
m7237 7 c3 -5 -1 -10 -10 -10 -9 0 -13 5 -10 10 3 6 8 10 10 10 2 0 7 -4 10
-10z m-7321 -26 c-4 -14 -1 -43 6 -64 17 -53 -2 -95 -45 -95 -28 0 -30 3 -30
35 0 27 5 37 23 45 28 12 28 38 1 56 -29 20 -16 49 22 49 27 0 29 -2 23 -26z
m4319 19 c-7 -2 -21 -2 -30 0 -10 3 -4 5 12 5 17 0 24 -2 18 -5z m939 -18 c-2
-14 -8 -25 -13 -25 -5 0 -9 11 -9 25 0 14 6 25 14 25 9 0 12 -8 8 -25z m778 0
c0 -14 -4 -25 -10 -25 -11 0 -14 33 -3 43 11 11 13 8 13 -18z m457 -7 c-3 -8
-6 -5 -6 6 -1 11 2 17 5 13 3 -3 4 -12 1 -19z m-6297 -15 c-1 -24 -2 -26 -11
-10 -5 9 -7 22 -4 27 10 17 15 11 15 -17z m-325 11 c14 -6 14 -9 -5 -29 -14
-15 -18 -25 -11 -30 19 -11 12 -43 -10 -50 -22 -7 -39 7 -39 33 0 6 -7 12 -15
12 -8 0 -15 7 -15 15 0 8 7 15 15 15 8 0 15 5 15 10 0 9 13 17 47 29 1 1 9 -2
18 -5z m4241 -14 c-9 -3 -22 -16 -29 -30 -14 -28 -27 -33 -47 -20 -13 9 -13
12 3 24 9 7 17 18 17 24 0 6 12 12 28 14 33 5 52 -3 28 -12z m3011 4 c-3 -3
-12 -4 -19 -1 -8 3 -5 6 6 6 11 1 17 -2 13 -5z m650 -16 c-3 -8 -6 -5 -6 6 -1
11 2 17 5 13 3 -3 4 -12 1 -19z m-7672 -4 c17 -13 18 -16 5 -24 -35 -22 -73
-3 -50 25 15 18 20 18 45 -1z m3595 -19 c0 -19 -4 -35 -10 -35 -5 0 -10 16
-10 35 0 19 5 35 10 35 6 0 10 -16 10 -35z m588 15 c23 0 12 -16 -20 -28 -36
-13 -55 -3 -44 23 4 12 13 15 29 11 12 -3 28 -6 35 -6z m136 4 c9 -3 16 -12
16 -19 0 -19 -27 -26 -58 -14 -15 6 -29 10 -32 9 -2 -1 -6 3 -8 8 -3 9 16 16
55 21 6 0 18 -2 27 -5z m1536 -19 c0 -8 -7 -15 -15 -15 -8 0 -15 7 -15 15 0 8
7 15 15 15 8 0 15 -7 15 -15z m1115 -5 c-3 -5 -10 -10 -16 -10 -5 0 -9 5 -9
10 0 6 7 10 16 10 8 0 12 -4 9 -10z m215 0 c0 -5 -4 -10 -10 -10 -5 0 -10 5
-10 10 0 6 5 10 10 10 6 0 10 -4 10 -10z m-8411 -65 c-1 -40 -5 -55 -15 -55
-15 0 -20 72 -8 104 12 30 23 5 23 -49z m1587 28 c-10 -10 -19 5 -10 18 6 11
8 11 12 0 2 -7 1 -15 -2 -18z m1351 -20 c-3 -10 -5 -2 -5 17 0 19 2 27 5 18 2
-10 2 -26 0 -35z m3483 26 c0 -5 -4 -9 -10 -9 -5 0 -10 7 -10 16 0 8 5 12 10
9 6 -3 10 -10 10 -16z m-1295 1 c3 -5 -1 -10 -10 -10 -9 0 -13 5 -10 10 3 6 8
10 10 10 2 0 7 -4 10 -10z m1822 -27 c-9 -21 -13 -23 -15 -9 -5 24 6 49 18 41
6 -3 5 -16 -3 -32z m-6081 -21 c-11 -10 -15 4 -8 28 l7 25 3 -23 c2 -13 1 -26
-2 -30z m7294 38 c0 -5 -2 -10 -4 -10 -3 0 -8 5 -11 10 -3 6 -1 10 4 10 6 0
11 -4 11 -10z m-3492 -37 c11 -36 3 -63 -19 -63 -13 0 -21 39 -14 70 9 40 19
38 33 -7z m872 7 c0 -11 -60 -18 -66 -8 -4 5 3 12 15 15 12 3 21 10 21 15 0 6
7 5 15 -2 8 -7 15 -16 15 -20z m2989 -11 c-17 -10 -39 -12 -39 -2 0 3 8 14 18
23 15 15 18 15 26 2 5 -9 4 -17 -5 -23z m-7239 11 c0 -5 -11 -10 -24 -10 -19
0 -23 -4 -19 -20 4 -16 0 -20 -21 -20 -36 0 -32 21 7 42 37 19 57 22 57 8z
m6980 -2 c0 -6 7 -19 15 -28 14 -15 14 -19 1 -29 -10 -9 -20 -9 -33 -3 -29 16
-56 50 -48 61 9 15 65 14 65 -1z m-3950 -14 c0 -8 -5 -12 -10 -9 -6 4 -8 11
-5 16 9 14 15 11 15 -7z m-3930 -10 c36 -18 26 -34 -22 -34 -29 0 -33 6 -22
34 7 19 4 19 44 0z m5565 -14 c0 -27 -20 -38 -28 -15 -8 20 3 47 17 42 6 -2
11 -14 11 -27z m180 -9 c14 -22 25 -48 22 -58 -3 -14 -7 -11 -17 14 -6 18 -15
31 -20 28 -14 -9 -43 22 -37 39 10 25 22 19 52 -23z m1125 9 c0 -11 -46 -18
-60 -10 -8 5 -5 13 11 23 22 16 49 8 49 -13z m390 0 c0 -5 -9 -14 -20 -20 -18
-10 -20 -8 -20 20 0 28 2 30 20 20 11 -6 20 -15 20 -20z m-5736 -10 c-6 -6
-15 -6 -24 0 -13 9 -13 11 0 20 18 11 39 -5 24 -20z m6244 6 c3 -15 -1 -17
-20 -11 -32 10 -35 15 -18 25 20 13 34 7 38 -14z m709 -13 c-3 -10 -5 -4 -5
12 0 17 2 24 5 18 2 -7 2 -21 0 -30z m33 12 c0 -8 -4 -15 -10 -15 -5 0 -10 7
-10 15 0 8 5 15 10 15 6 0 10 -7 10 -15z m-7989 -17 c-5 -13 -17 -24 -27 -25
-14 -1 -15 -1 -3 3 10 3 19 14 22 25 3 10 8 19 11 19 3 0 2 -10 -3 -22z m728
-25 c1 -32 -2 -43 -12 -43 -22 0 -39 65 -22 82 17 17 32 1 34 -39z m3524 16
c-5 -19 -7 -19 -15 -5 -10 18 -2 39 12 31 4 -3 6 -15 3 -26z m3241 15 c24 -23
19 -34 -15 -34 -23 0 -30 4 -25 15 3 8 2 14 -2 14 -16 -3 -23 2 -17 11 9 15
42 12 59 -6z m-3648 -22 c16 -42 -10 -96 -31 -63 -7 12 5 91 14 91 4 0 11 -13
17 -28z m1128 -23 c5 -25 10 -30 23 -24 10 4 24 9 32 13 9 3 12 0 9 -9 -3 -8
-24 -17 -47 -20 -39 -5 -44 -3 -52 20 -14 35 -3 77 15 62 8 -6 16 -25 20 -42z
m654 19 c-6 -17 -23 -9 -24 12 -1 16 1 18 13 9 7 -7 12 -16 11 -21z m-5375 -3
c-4 -15 -76 -12 -81 3 -3 10 7 12 39 10 24 -2 43 -7 42 -13z m1778 -8 c-13
-13 -26 -3 -16 12 3 6 11 8 17 5 6 -4 6 -10 -1 -17z m299 1 c0 -16 -3 -19 -11
-11 -6 6 -8 16 -5 22 11 17 16 13 16 -11z m210 2 c0 -15 -7 -20 -25 -20 -18 0
-25 5 -25 20 0 15 7 20 25 20 18 0 25 -5 25 -20z m3390 10 c0 -5 -9 -10 -21
-10 -11 0 -17 5 -14 10 3 6 13 10 21 10 8 0 14 -4 14 -10z m493 -4 c15 -39
-25 -74 -67 -61 -53 17 -51 16 -36 25 8 6 25 10 37 10 12 0 27 9 33 20 13 23
26 26 33 6z m-178 -6 c3 -5 2 -10 -4 -10 -5 0 -13 5 -16 10 -3 6 -2 10 4 10 5
0 13 -4 16 -10z m585 -32 c0 -5 -9 -8 -20 -8 -18 0 -19 3 -8 20 9 14 14 16 20
7 4 -7 8 -15 8 -19z m-7296 6 c33 -13 14 -24 -38 -24 -51 0 -74 9 -59 24 8 8
76 8 97 0z m1266 -4 c13 -8 13 -11 0 -24 -13 -13 -18 -13 -34 -1 -31 24 0 47
34 25z m125 -26 c0 -19 -5 -29 -15 -29 -16 0 -25 28 -16 51 10 25 31 10 31
-22z m570 13 c7 -6 -3 -8 -30 -3 -22 3 -52 6 -67 6 -16 0 -28 5 -28 10 0 13
111 2 125 -13z m508 8 c-2 -5 -14 -10 -28 -11 -25 -1 -31 6 -18 20 10 10 48 3
46 -9z m1055 -2 c5 -17 -26 -29 -40 -15 -6 6 -7 15 -3 22 9 14 37 9 43 -7z
m312 1 c0 -12 -11 -14 -52 -13 -43 2 -54 -1 -66 -19 -8 -12 -21 -22 -28 -22
-16 0 -19 16 -4 25 6 3 10 14 10 24 0 15 10 18 70 19 56 1 70 -2 70 -14z m969
7 c10 -6 10 -10 1 -16 -14 -9 -60 2 -60 15 0 12 40 13 59 1z m1461 -1 c13 0
13 -1 0 -10 -19 -12 -137 -13 -145 -1 -6 10 74 20 110 15 11 -2 27 -4 35 -4z
m2249 1 c23 -14 -5 -43 -33 -35 -29 9 -47 25 -40 35 7 12 55 11 73 0z m-8979
-11 c-8 -5 -24 -10 -35 -10 -27 0 -3 15 27 17 18 2 20 0 8 -7z m1980 0 c0 -5
-14 -10 -31 -10 -17 0 -28 4 -24 10 3 6 17 10 31 10 13 0 24 -4 24 -10z m1364
-2 c-8 -12 -64 -10 -64 2 0 6 15 10 34 8 19 -1 32 -6 30 -10z m256 1 c0 -7
-11 -9 -28 -6 -34 7 -47 0 -56 -30 -10 -33 -26 -28 -26 6 0 23 5 31 23 34 45
9 87 7 87 -4z m-204 -14 c8 -20 -4 -51 -15 -39 -5 5 -12 19 -16 32 -5 16 -2
22 10 22 8 0 18 -7 21 -15z m3814 -12 c0 -3 -8 -24 -17 -45 -28 -64 -59 -40
-33 26 6 16 17 26 30 26 11 0 20 -3 20 -7z m1939 -7 c9 -10 8 -16 -3 -26 -19
-15 -36 -5 -36 21 0 22 22 25 39 5z m-2921 -22 c-2 -11 5 -18 19 -19 13 -1 26
-5 30 -8 3 -4 -9 -6 -28 -4 -27 2 -35 7 -37 25 -2 12 2 22 8 22 6 0 10 -7 8
-16z m-3665 -25 l32 -1 -38 -10 c-41 -11 -72 -4 -62 13 4 6 14 8 22 5 8 -3 29
-6 46 -7z m2245 -8 c3 -8 -1 -12 -9 -9 -7 2 -15 10 -17 17 -3 8 1 12 9 9 7 -2
15 -10 17 -17z m3827 -1 c-3 -4 -15 -6 -27 -2 -21 5 -21 6 -2 12 21 8 37 3 29
-10z m-7245 -15 c0 -14 -4 -25 -9 -25 -5 0 -11 11 -13 25 -4 17 -1 25 8 25 8
0 14 -11 14 -25z m3530 7 c0 -18 49 -62 70 -62 18 0 10 -18 -11 -23 -33 -9
-49 2 -66 44 -8 22 -21 39 -28 39 -8 0 -17 5 -20 10 -4 6 7 10 24 10 23 0 31
-5 31 -18z m707 -14 c-3 -7 -5 -2 -5 12 0 14 2 19 5 13 2 -7 2 -19 0 -25z
m-2861 -13 c3 -19 10 -33 14 -30 13 8 23 -16 12 -27 -5 -5 -19 -7 -31 -3 -17
5 -21 14 -21 51 0 52 16 58 26 9z m-2033 -30 c13 -1 37 -11 52 -23 15 -12 39
-22 54 -22 29 0 58 -15 45 -22 -5 -3 -30 -8 -55 -12 -36 -5 -49 -3 -59 9 -9
11 -22 14 -39 10 -14 -4 -23 -4 -19 0 4 4 -6 21 -22 39 -17 17 -30 42 -30 56
l1 25 24 -30 c14 -16 35 -30 48 -30z m7247 26 c0 -3 -5 -13 -10 -21 -12 -19
-35 2 -27 24 6 15 37 12 37 -3z m-1010 5 c0 -3 -4 -8 -10 -11 -5 -3 -10 -1
-10 4 0 6 5 11 10 11 6 0 10 -2 10 -4z m1715 -23 c17 -25 17 -27 -1 -40 -26
-19 -48 4 -38 40 8 34 17 34 39 0z m-7402 -5 c8 -28 10 -26 -49 -37 -26 -5
-50 -14 -52 -20 -2 -6 -22 -11 -43 -11 -24 0 -38 4 -34 10 3 6 21 10 38 10 21
0 38 7 47 20 8 11 20 20 26 20 6 0 17 7 24 15 18 22 37 18 43 -7z m2194 2 l25
-20 -27 -10 c-32 -12 -28 -12 -61 0 -26 10 -26 11 -9 30 23 25 40 25 72 0z
m683 -4 c41 -17 32 -22 -51 -31 -74 -8 -97 5 -52 28 36 19 63 20 103 3z
m-3600 -16 c0 -10 -56 -30 -64 -23 -13 14 -5 32 17 35 26 5 47 -1 47 -12z
m1298 -3 c5 -22 -24 -33 -44 -16 -14 12 -14 14 2 26 22 16 38 12 42 -10z
m2964 1 c-11 -11 -32 -3 -32 12 0 4 9 6 21 3 13 -4 17 -9 11 -15z m1536 4 c3
-9 -2 -13 -14 -10 -9 1 -19 9 -22 16 -3 9 2 13 14 10 9 -1 19 -9 22 -16z
m1472 -2 c0 -4 -8 -11 -17 -14 -19 -8 -38 7 -29 22 7 11 46 4 46 -8z m1305 -1
c-4 -5 -16 -9 -28 -9 -21 1 -21 1 -3 15 20 15 41 11 31 -6z m-6645 -4 c-13
-16 -80 -21 -80 -7 0 16 14 22 53 22 34 0 38 -2 27 -15z m2367 -7 c-3 -8 -6
-5 -6 6 -1 11 2 17 5 13 3 -3 4 -12 1 -19z m857 6 c25 -24 20 -45 -9 -41 -22
3 -65 37 -65 52 0 12 60 4 74 -11z m2772 1 c-22 -17 -46 -20 -46 -6 0 11 18
19 45 20 20 0 20 0 1 -14z m-381 -20 c39 -7 47 -17 39 -49 -8 -31 -15 -33 -32
-5 -11 17 -19 20 -52 14 -42 -7 -55 3 -45 36 6 17 12 20 33 15 15 -4 40 -9 57
-11z m-8220 -5 c3 -5 1 -10 -4 -10 -6 0 -11 5 -11 10 0 6 2 10 4 10 3 0 8 -4
11 -10z m265 -17 c0 -10 -4 -24 -9 -31 -7 -11 -10 -10 -15 3 -10 28 -7 45 9
45 8 0 15 -8 15 -17z m1470 -8 c22 -20 28 -69 8 -63 -7 3 -14 14 -16 26 -2 16
-15 25 -45 33 -63 18 -71 32 -14 26 26 -2 57 -13 67 -22z m1030 15 c0 -5 -7
-10 -15 -10 -8 0 -15 5 -15 10 0 6 7 10 15 10 8 0 15 -4 15 -10z m2490 0 c13
-8 13 -10 0 -14 -37 -13 -100 -3 -100 15 0 12 81 11 100 -1z m220 2 c0 -5 -18
-17 -41 -27 -35 -16 -42 -17 -50 -4 -19 30 -10 39 41 39 28 0 50 -4 50 -8z
m909 -19 c-10 -11 -14 -11 -20 -1 -10 17 -2 28 17 21 11 -4 12 -8 3 -20z m251
18 c0 -16 -64 -20 -80 -5 -12 12 -8 14 33 14 26 0 47 -4 47 -9z m310 -1 c0 -5
-11 -10 -25 -10 -14 0 -25 5 -25 10 0 6 11 10 25 10 14 0 25 -4 25 -10z m895
-21 c7 -33 3 -45 -14 -34 -13 8 -15 65 -2 65 5 0 12 -14 16 -31z m689 21 c-6
-6 -28 -11 -50 -12 -21 0 -46 -5 -56 -9 -11 -6 -18 -4 -21 5 -9 22 2 26 72 26
44 0 62 -3 55 -10z m474 -43 c2 -18 -1 -27 -11 -27 -18 0 -29 24 -20 45 8 23
28 12 31 -18z m-6868 2 c0 -24 -23 -21 -28 4 -2 10 3 17 12 17 10 0 16 -9 16
-21z m896 9 c4 -6 3 -8 -4 -4 -6 3 -13 2 -17 -4 -3 -5 -20 -10 -38 -10 -46 0
-13 24 40 29 6 0 15 -4 19 -11z m614 -13 c0 -18 -21 -24 -44 -12 -19 9 -19 10
-2 23 20 14 46 8 46 -11z m740 0 c0 -16 -88 -19 -124 -5 -19 7 -20 9 -3 15 10
4 33 5 51 2 18 -3 39 -1 46 3 17 10 30 4 30 -15z m250 -1 c0 -8 -7 -14 -15
-14 -15 0 -21 21 -9 33 10 9 24 -2 24 -19z m323 11 c7 -16 -8 -29 -23 -20 -10
6 -2 35 10 35 4 0 10 -7 13 -15z m4195 3 c-7 -19 -38 -22 -38 -4 0 10 9 16 21
16 12 0 19 -5 17 -12z m-9278 -2 c0 -3 -4 -8 -10 -11 -5 -3 -10 -1 -10 4 0 6
5 11 10 11 6 0 10 -2 10 -4z m880 -16 c0 -23 -10 -26 -28 -8 -18 18 -15 28 8
28 13 0 20 -7 20 -20z m1298 9 c-2 -6 -8 -10 -13 -10 -5 0 -11 4 -13 10 -2 6
4 11 13 11 9 0 15 -5 13 -11z m402 -4 c0 -15 -43 -12 -48 3 -3 10 4 13 22 10
15 -2 26 -7 26 -13z m1061 0 c0 -5 -9 -11 -21 -13 -20 -3 -27 8 -13 22 10 9
34 3 34 -9z m394 5 c4 -6 -7 -10 -27 -10 -25 0 -29 3 -18 10 19 13 37 13 45 0z
m321 -3 c4 -4 -9 -7 -29 -7 -20 0 -38 4 -42 10 -6 10 61 8 71 -3z m2028 -2
c-6 -16 -44 -21 -44 -7 0 14 12 22 31 22 12 0 16 -5 13 -15z m1716 0 c0 -8 -6
-15 -14 -15 -17 0 -28 14 -19 24 12 12 33 6 33 -9z m-3720 -115 c0 -5 -17 -10
-37 -10 -28 0 -34 3 -23 10 20 13 60 13 60 0z m-4724 -582 c8 -12 -24 -40 -37
-32 -5 3 -9 14 -9 25 0 21 34 27 46 7z m6680 -10 c-9 -5 -26 -6 -39 -2 -22 8
-22 8 3 14 34 9 58 1 36 -12z m1844 7 c0 -8 -9 -15 -20 -15 -20 0 -26 11 -13
23 12 13 33 7 33 -8z m-1220 -5 c0 -5 -9 -10 -20 -10 -11 0 -20 5 -20 10 0 6
9 10 20 10 11 0 20 -4 20 -10z m2010 0 c0 -5 -2 -10 -4 -10 -3 0 -8 5 -11 10
-3 6 -1 10 4 10 6 0 11 -4 11 -10z m775 0 c3 -5 -3 -10 -14 -10 -11 0 -23 5
-26 10 -3 6 3 10 14 10 11 0 23 -4 26 -10z m635 0 c0 -5 -4 -10 -10 -10 -5 0
-10 5 -10 10 0 6 5 10 10 10 6 0 10 -4 10 -10z m-380 -10 c-20 -13 -60 -13
-60 0 0 6 17 10 38 10 27 0 33 -3 22 -10z m-1141 -19 c12 -8 10 -14 -10 -35
-37 -40 -49 -33 -29 18 10 28 17 31 39 17z m318 -7 c3 -8 -15 -12 -56 -12 -70
0 -82 15 -18 21 58 5 70 4 74 -9z m-9932 -4 c-3 -5 -10 -10 -16 -10 -5 0 -9 5
-9 10 0 6 7 10 16 10 8 0 12 -4 9 -10z m1603 -2 c-3 -7 -11 -13 -18 -13 -7 0
-15 6 -17 13 -3 7 4 12 17 12 13 0 20 -5 18 -12z m362 2 c0 -5 -5 -10 -11 -10
-5 0 -7 5 -4 10 3 6 8 10 11 10 2 0 4 -4 4 -10z m1256 -30 c1 -19 7 -36 13
-38 19 -6 1 -22 -24 -22 -17 0 -22 5 -20 18 2 9 4 32 4 50 1 45 25 37 27 -8z
m2074 24 c0 -8 -4 -12 -10 -9 -5 3 -10 10 -10 16 0 5 5 9 10 9 6 0 10 -7 10
-16z m1895 6 c-3 -5 -10 -10 -16 -10 -5 0 -9 5 -9 10 0 6 7 10 16 10 8 0 12
-4 9 -10z m3015 0 c0 -5 -13 -10 -30 -10 -16 0 -30 5 -30 10 0 6 14 10 30 10
17 0 30 -4 30 -10z m-6902 -36 c-5 -28 -28 -29 -28 -1 0 13 3 27 7 31 10 10
25 -10 21 -30z m-2079 2 c17 -20 -2 -29 -41 -21 -30 7 -31 8 -13 21 24 18 40
18 54 0z m6421 -1 c10 -12 9 -16 -5 -21 -19 -8 -40 9 -31 25 10 15 21 14 36
-4z m864 -17 c-6 -10 -36 -10 -58 -2 -12 5 -14 10 -6 19 8 10 18 10 40 2 16
-6 27 -15 24 -19z m2675 18 c14 -17 0 -29 -23 -20 -17 7 -20 16 -9 27 10 11
19 8 32 -7z m-4112 -2 c13 -4 20 -10 17 -15 -6 -10 -45 -12 -69 -3 -13 5 -14
8 -3 15 16 10 26 11 55 3z m3023 -20 c0 -8 -6 -14 -12 -14 -9 0 -8 -4 2 -10
12 -8 10 -10 -8 -10 -13 0 -20 4 -17 10 3 6 1 10 -4 10 -13 0 -10 22 3 32 13
9 36 -2 36 -18z m-9823 10 c-3 -3 -12 -4 -19 -1 -8 3 -5 6 6 6 11 1 17 -2 13
-5z m87 -16 c7 -29 -8 -45 -28 -28 -9 7 -13 16 -11 21 3 4 -3 12 -12 18 -15 9
-13 10 13 11 24 0 33 -5 38 -22z m726 2 c9 -16 8 -20 -6 -20 -10 0 -14 3 -11
7 4 3 -1 12 -11 19 -16 13 -16 13 0 14 10 0 22 -9 28 -20z m343 13 c-7 -2 -19
-2 -25 0 -7 3 -2 5 12 5 14 0 19 -2 13 -5z m4377 -3 c0 -5 -4 -10 -10 -10 -5
0 -10 5 -10 10 0 6 5 10 10 10 6 0 10 -4 10 -10z m3080 -20 c0 -16 -4 -30 -9
-30 -5 0 -19 14 -31 30 l-21 30 30 0 c28 0 31 -3 31 -30z m835 20 c3 -5 -1
-10 -9 -10 -9 0 -16 5 -16 10 0 6 4 10 9 10 6 0 13 -4 16 -10z m-9259 -37
c-11 -11 -19 6 -11 24 8 17 8 17 12 0 3 -10 2 -21 -1 -24z m1649 9 c-3 -3 -11
0 -18 7 -9 10 -8 11 6 5 10 -3 15 -9 12 -12z m253 1 c11 -11 0 -13 -57 -13
-38 0 -72 4 -75 9 -8 13 5 16 67 16 28 0 58 -6 65 -12z m742 3 c0 -7 -7 -19
-16 -26 -12 -11 -18 -11 -31 2 -8 9 -12 21 -9 27 10 16 56 14 56 -3z m5536 -1
c14 -13 12 -15 -15 -15 -23 0 -29 4 -25 15 4 8 10 15 16 15 5 0 16 -7 24 -15z
m1771 9 c-3 -3 -12 -4 -19 -1 -8 3 -5 6 6 6 11 1 17 -2 13 -5z m-10309 -16
c-5 -15 -58 -24 -58 -10 0 15 12 22 38 22 14 0 22 -5 20 -12z m7645 -3 c-4
-15 -56 -12 -61 3 -3 10 5 13 29 10 19 -2 33 -7 32 -13z m583 0 c-22 -17 -42
-19 -50 -6 -9 13 5 21 38 21 29 -1 30 -1 12 -15z m964 5 c0 -5 -4 -10 -10 -10
-5 0 -10 5 -10 10 0 6 5 10 10 10 6 0 10 -4 10 -10z m425 0 c-3 -5 -10 -10
-16 -10 -5 0 -9 5 -9 10 0 6 7 10 16 10 8 0 12 -4 9 -10z m225 0 c11 0 10 -4
-5 -12 -11 -6 -24 -16 -28 -22 -6 -8 -10 -7 -14 2 -8 19 -53 15 -53 -5 0 -15
-4 -13 -19 7 -11 13 -18 27 -16 30 3 5 64 5 135 0z m-5945 -10 c-3 -5 -13 -10
-22 -10 -13 0 -14 -8 -9 -39 4 -25 2 -42 -5 -47 -19 -12 -28 10 -22 59 5 44 7
47 35 47 17 0 27 -4 23 -10z m6522 3 c-20 -2 -52 -2 -70 0 -17 2 0 4 38 4 39
0 53 -2 32 -4z m-7177 -45 c-1 -26 -3 -30 -10 -16 -6 9 -7 23 -4 32 9 25 14
19 14 -16z m1954 24 c3 -5 3 -18 0 -30 -7 -24 -34 -19 -34 7 0 27 22 42 34 23z
m5969 -10 c10 -5 0 -73 -13 -85 -4 -5 -11 5 -15 21 -3 17 -13 36 -21 43 -25
21 -17 40 14 33 15 -4 31 -9 35 -12z m-8709 -54 c3 -66 -6 -81 -40 -66 -24 11
-32 42 -14 53 6 4 17 23 25 42 19 45 26 38 29 -29z m5306 41 c0 -5 16 -17 35
-26 38 -18 55 -50 34 -64 -9 -6 -19 -3 -30 10 -8 10 -29 26 -46 34 -31 16 -48
42 -38 57 6 10 45 1 45 -11z m-7317 -9 c-3 -11 -7 -20 -9 -20 -2 0 -4 9 -4 20
0 11 4 20 9 20 5 0 7 -9 4 -20z m6520 13 c-7 -2 -21 -2 -30 0 -10 3 -4 5 12 5
17 0 24 -2 18 -5z m1857 -8 c0 -8 -2 -15 -4 -15 -2 0 -6 7 -10 15 -3 8 -1 15
4 15 6 0 10 -7 10 -15z m990 -26 c0 -17 -4 -28 -10 -24 -5 3 -10 17 -10 31 0
13 5 24 10 24 6 0 10 -14 10 -31z m-9856 5 c5 -13 -6 -46 -20 -63 -1 -1 -13 6
-25 18 -13 12 -29 21 -36 21 -7 0 -13 5 -13 10 0 6 10 10 23 10 12 0 29 5 37
10 21 13 27 12 34 -6z m1511 -3 c3 -5 -2 -16 -10 -24 -18 -19 -19 -39 -3 -55
16 -16 -4 -37 -28 -28 -13 5 -15 9 -6 18 7 7 12 31 12 55 0 31 4 43 14 43 8 0
17 -4 21 -9z m395 -17 c0 -14 -4 -23 -10 -19 -5 3 -10 15 -10 26 0 10 5 19 10
19 6 0 10 -12 10 -26z m6330 6 c0 -5 -4 -10 -10 -10 -5 0 -10 5 -10 10 0 6 5
10 10 10 6 0 10 -4 10 -10z m-5290 -58 c-7 -13 -9 -8 -9 23 0 35 1 37 10 17 6
-15 5 -30 -1 -40z m2304 -37 c-3 -8 -12 -15 -20 -15 -15 0 -20 70 -7 84 11 11
34 -50 27 -69z m-1911 31 c3 -8 -1 -20 -9 -26 -12 -10 -14 -8 -14 14 0 28 14
35 23 12z m6447 -17 c0 -14 -7 -19 -30 -19 -36 0 -40 22 -7 37 27 13 37 8 37
-18z m-7876 -38 c-4 -17 -10 -28 -15 -25 -11 6 -12 68 -2 78 12 12 23 -21 17
-53z m-502 32 c27 -8 29 -31 6 -78 -15 -30 -25 -41 -30 -32 -5 8 -8 4 -8 -11
0 -13 4 -20 10 -17 5 3 16 -10 24 -30 19 -44 31 -44 52 -2 22 43 24 44 34 27
16 -25 11 -48 -15 -76 -33 -35 -36 -114 -6 -135 23 -16 32 -60 14 -66 -7 -3
-13 2 -13 11 0 8 -9 20 -20 26 -16 8 -20 21 -20 58 0 72 -11 122 -26 122 -8 0
-13 3 -12 8 3 15 -15 42 -25 35 -7 -4 -8 12 -3 52 5 46 3 61 -10 76 -21 23
-11 54 14 44 9 -4 25 -9 34 -12z m630 -5 c-6 -6 -16 -7 -22 -3 -9 6 -9 9 1 16
17 10 34 0 21 -13z m7202 1 c-3 -5 -10 -7 -15 -3 -5 3 -7 10 -3 15 3 5 10 7
15 3 5 -3 7 -10 3 -15z m-9324 -15 c0 -14 9 -33 20 -42 14 -12 18 -24 14 -40
l-7 -23 -26 27 c-21 21 -26 33 -23 65 5 43 22 54 22 13z m2422 -9 c-5 -31 -20
-42 -28 -21 -7 17 13 59 25 52 5 -3 6 -17 3 -31z m1732 20 c-6 -15 -38 -14
-99 4 -25 8 -18 9 37 10 56 1 66 -2 62 -14z m431 5 c-8 -13 -35 -13 -55 0 -11
7 -5 10 23 10 23 0 36 -4 32 -10z m873 -1 c-2 -6 -8 -10 -13 -10 -5 0 -11 4
-13 10 -2 6 4 11 13 11 9 0 15 -5 13 -11z m402 -4 c0 -8 -9 -15 -19 -15 -10 0
-21 7 -25 15 -4 11 1 15 19 15 16 0 25 -6 25 -15z m1510 6 c0 -12 -56 -25 -70
-16 -22 13 -8 25 30 25 22 0 40 -4 40 -9z m1117 -3 c-5 -17 -95 -17 -116 -1
-13 10 -4 12 52 13 51 0 68 -3 64 -12z m931 -4 c-9 -9 -21 -13 -27 -10 -20 13
-11 26 16 26 25 0 26 -1 11 -16z m562 6 c0 -5 -2 -10 -4 -10 -3 0 -8 5 -11 10
-3 6 -1 10 4 10 6 0 11 -4 11 -10z m130 0 c0 -5 -4 -10 -9 -10 -6 0 -13 5 -16
10 -3 6 1 10 9 10 9 0 16 -4 16 -10z m-9062 -32 c-3 -36 -30 -46 -36 -15 -5
26 5 47 23 47 12 0 15 -8 13 -32z m6990 4 c2 -14 -2 -22 -11 -22 -17 0 -26 19
-19 38 7 19 27 9 30 -16z m-5034 9 c9 -14 -4 -41 -19 -41 -15 0 -24 19 -17 38
5 14 28 16 36 3z m6079 -4 c3 -8 1 -20 -3 -27 -11 -18 -41 5 -33 26 7 18 29
18 36 1z m162 -8 c0 -7 -8 -15 -17 -17 -18 -3 -25 18 -11 32 10 10 28 1 28
-15z m1534 -11 c-8 -14 -14 -17 -21 -10 -15 15 -2 43 16 36 12 -5 13 -10 5
-26z m-7942 10 c13 -17 43 -107 43 -130 0 -10 -6 -18 -14 -18 -9 0 -16 18 -21
56 -4 33 -12 57 -21 61 -15 6 -20 43 -5 43 5 0 13 -6 18 -12z m4009 -3 c-25
-19 -46 -19 -46 0 0 10 10 15 33 15 30 -1 31 -1 13 -15z m819 -5 c0 -8 -10
-16 -22 -18 -18 -3 -23 2 -23 18 0 16 5 21 23 18 12 -2 22 -10 22 -18z m625
-1 c0 -24 -23 -21 -28 4 -2 10 3 17 12 17 10 0 16 -9 16 -21z m2705 -9 c-3 -5
-1 -11 5 -15 5 -3 10 -10 10 -15 0 -15 -30 -20 -49 -8 -17 11 -18 14 -4 34 13
21 50 24 38 4z m-8915 -25 c0 -14 -4 -25 -10 -25 -5 0 -10 11 -10 25 0 14 5
25 10 25 6 0 10 -11 10 -25z m6120 -15 c0 -23 -4 -30 -20 -30 -23 0 -23 0 -10
34 13 35 30 33 30 -4z m-1011 10 c-9 -5 -20 -21 -23 -35 -5 -18 -13 -25 -31
-25 -31 0 -31 3 -3 40 14 20 30 30 47 30 21 -1 23 -2 10 -10z m4202 -11 c31
-22 39 -59 15 -78 -10 -9 -19 -4 -40 23 -27 35 -35 76 -15 76 6 0 24 -9 40
-21z m-4611 -20 c0 -14 -7 -19 -25 -19 -29 0 -31 7 -9 31 19 21 34 16 34 -12z
m510 -8 c0 -11 -4 -23 -10 -26 -6 -4 -10 5 -10 19 0 14 5 26 10 26 6 0 10 -9
10 -19z m445 -14 c-11 -6 -21 -5 -28 2 -17 17 12 34 31 19 11 -10 10 -13 -3
-21z m3091 -32 c-4 -15 -12 -25 -19 -22 -17 5 -21 35 -6 53 17 21 33 2 25 -31z
m286 21 c6 -14 8 -32 4 -42 -6 -16 -8 -15 -27 5 -13 14 -18 28 -14 41 9 27 23
25 37 -4z m-10035 -23 c-3 -10 -5 -4 -5 12 0 17 2 24 5 18 2 -7 2 -21 0 -30z
m2423 3 c0 -14 -4 -28 -10 -31 -6 -4 -10 7 -10 24 0 17 5 31 10 31 6 0 10 -11
10 -24z m3240 15 c0 -12 -20 -25 -27 -18 -7 7 6 27 18 27 5 0 9 -4 9 -9z
m1412 -26 c-6 -34 -12 -32 -12 6 0 16 4 28 9 25 4 -3 6 -17 3 -31z m1008 0 c0
-19 -3 -35 -7 -36 -5 0 -15 -2 -24 -4 -12 -2 -15 3 -11 24 10 57 42 69 42 16z
m1578 1 c2 -15 1 -35 -3 -44 -9 -25 -25 4 -25 46 0 41 23 39 28 -2z m-10541 2
c-3 -8 -6 -5 -6 6 -1 11 2 17 5 13 3 -3 4 -12 1 -19z m1843 -8 c0 -20 -5 -30
-15 -30 -10 0 -15 10 -15 30 0 20 5 30 15 30 10 0 15 -10 15 -30z m287 -7 c-3
-10 -5 -4 -5 12 0 17 2 24 5 18 2 -7 2 -21 0 -30z m5950 15 c-3 -8 -6 -5 -6 6
-1 11 2 17 5 13 3 -3 4 -12 1 -19z m3323 12 c0 -5 -4 -10 -9 -10 -6 0 -13 5
-16 10 -3 6 1 10 9 10 9 0 16 -4 16 -10z m-11026 -62 c18 -3 21 -10 22 -58 0
-74 2 -80 19 -80 8 0 15 -8 15 -19 0 -10 -7 -24 -15 -31 -16 -13 -17 -12 -19
35 -1 11 -6 19 -13 18 -11 -2 -33 47 -33 76 0 9 -7 29 -15 45 -8 15 -15 40
-14 55 0 26 0 26 16 -6 9 -18 25 -33 37 -35z m10375 35 c6 -12 6 -24 -1 -37
-10 -19 -11 -18 -23 4 -21 39 2 71 24 33z m-7959 -3 c0 -5 -5 -10 -11 -10 -5
0 -7 5 -4 10 3 6 8 10 11 10 2 0 4 -4 4 -10z m4085 -44 c2 -19 6 -40 9 -45 3
-5 -1 -11 -9 -15 -21 -8 -24 3 -18 57 6 54 13 55 18 3z m150 38 c13 -5 14 -8
3 -15 -21 -14 -48 -10 -48 6 0 16 17 19 45 9z m-1443 -387 c-2 -205 -5 -374
-8 -376 -2 -2 -4 168 -4 379 0 211 3 380 8 376 4 -4 6 -175 4 -379z m911 351
c-8 -46 -13 -48 -13 -5 0 21 4 37 10 37 5 0 7 -14 3 -32z m-6444 -55 c1 -7 -6
-13 -14 -13 -16 0 -22 50 -8 64 7 7 20 -23 22 -51z m2148 35 c-13 -73 -20 -88
-40 -88 -17 0 -19 5 -14 37 4 20 12 40 19 45 7 4 9 8 3 8 -11 0 16 20 28 20 4
0 6 -10 4 -22z m1183 -13 c0 -24 -44 -78 -54 -67 -15 15 -5 72 16 86 26 19 38
13 38 -19z m4240 17 c0 -5 -6 -17 -14 -27 -13 -18 -14 -18 -9 8 5 24 23 39 23
19z m406 -38 c-7 -18 -46 -18 -46 0 0 8 10 22 23 31 20 14 22 14 25 0 2 -9 1
-23 -2 -31z m-5286 -5 c0 -22 -4 -38 -9 -35 -4 3 -7 16 -6 28 1 13 3 29 4 36
3 29 11 9 11 -29z m8162 13 c17 -17 -1 -32 -37 -32 -59 0 -82 19 -54 47 12 12
75 1 91 -15z m-8278 -10 c-1 -7 -2 -19 -2 -28 -1 -8 -6 -13 -11 -9 -5 3 -12 1
-16 -5 -10 -16 -25 -1 -25 24 0 12 2 25 5 28 10 9 50 1 49 -10z m5990 9 c3 -4
3 -11 0 -14 -8 -7 -44 4 -44 14 0 12 37 12 44 0z m386 -6 c0 -8 -4 -15 -10
-15 -5 0 -10 7 -10 15 0 8 5 15 10 15 6 0 10 -7 10 -15z m2205 5 c4 -6 -6 -10
-22 -10 -22 0 -25 2 -13 10 19 12 27 12 35 0z m-207 -33 c2 -18 -1 -27 -11
-27 -18 0 -29 24 -20 45 8 23 28 12 31 -18z m-4531 7 c6 -17 -12 -64 -26 -64
-12 0 -22 44 -15 64 8 21 33 21 41 0z m1195 -36 c-16 -16 -37 4 -28 28 6 16 8
16 23 1 13 -13 15 -19 5 -29z m2215 26 c8 -22 -15 -44 -26 -25 -10 16 -4 41
10 41 5 0 12 -7 16 -16z m-9871 -49 c-4 -19 -11 -33 -17 -30 -10 7 -12 68 -2
79 14 14 25 -14 19 -49z m1789 35 c3 -5 -1 -10 -10 -10 -9 0 -13 5 -10 10 3 6
8 10 10 10 2 0 7 -4 10 -10z m5205 0 c0 -5 -4 -10 -10 -10 -5 0 -10 5 -10 10
0 6 5 10 10 10 6 0 10 -4 10 -10z m-5175 -30 c3 -5 1 -10 -4 -10 -6 0 -11 5
-11 10 0 6 2 10 4 10 3 0 8 -4 11 -10z m850 4 c12 -5 14 -9 4 -14 -15 -10 -41
-1 -33 11 6 11 8 11 29 3z m5363 -38 c2 -28 0 -37 -10 -34 -7 3 -15 13 -17 24
-2 10 -8 22 -15 27 -8 5 -7 10 4 17 24 16 35 6 38 -34z m1905 -63 l-10 -88 -2
100 c-1 73 2 96 10 88 8 -8 9 -36 2 -100z m413 96 c7 -12 -15 -31 -31 -26 -5
2 -11 11 -13 20 -4 19 32 24 44 6z m159 -26 c-5 -30 -2 -26 -42 -47 -30 -15
-32 -15 -28 3 4 22 26 63 39 73 18 13 36 -4 31 -29z m-10845 -3 c0 -31 -16
-41 -26 -15 -8 19 2 45 16 45 5 0 10 -13 10 -30z m2460 21 c0 -6 -4 -13 -10
-16 -5 -3 -10 1 -10 9 0 9 5 16 10 16 6 0 10 -4 10 -9z m6407 -13 c-3 -8 -6
-5 -6 6 -1 11 2 17 5 13 3 -3 4 -12 1 -19z m133 -14 c0 -13 -4 -24 -10 -24 -5
0 -10 14 -10 31 0 17 4 28 10 24 6 -3 10 -17 10 -31z m1567 -16 c-2 -13 -4 -5
-4 17 -1 22 1 32 4 23 2 -10 2 -28 0 -40z m513 22 c0 -16 -4 -30 -8 -30 -5 0
-7 14 -4 30 2 17 6 30 8 30 2 0 4 -13 4 -30z m-9740 -15 c6 -19 18 -35 26 -35
8 0 14 -4 14 -10 0 -5 5 -9 12 -7 13 2 25 -33 27 -75 2 -43 -27 -35 -45 13
-10 23 -26 44 -39 49 -23 9 -33 38 -27 78 5 32 19 27 32 -13z m9207 -7 c-3 -7
-5 -2 -5 12 0 14 2 19 5 13 2 -7 2 -19 0 -25z m-1016 0 c-1 -5 -1 -17 -1 -28
0 -11 -4 -20 -10 -20 -13 0 -32 38 -25 51 8 11 36 8 36 -3z m-6195 -29 c3 -6
-1 -18 -10 -27 -15 -15 -16 -14 -16 11 0 27 13 36 26 16z m5701 -25 c-9 -9
-28 6 -21 18 4 6 10 6 17 -1 6 -6 8 -13 4 -17z m-5290 -51 c-2 -16 -4 -5 -4
22 0 28 2 40 4 28 2 -13 2 -35 0 -50z m5668 27 c3 -5 1 -10 -4 -10 -6 0 -11 5
-11 10 0 6 2 10 4 10 3 0 8 -4 11 -10z m-1379 -177 c-3 -7 -13 -13 -22 -13
-14 0 -16 7 -10 43 4 23 10 65 14 92 l6 50 8 -79 c5 -44 6 -86 4 -93z m-4820
91 c-3 -8 -10 -12 -16 -9 -12 7 -14 58 -3 69 10 10 26 -41 19 -60z m6244 31
c0 -8 -4 -17 -10 -20 -6 -4 -10 5 -10 20 0 15 4 24 10 20 6 -3 10 -12 10 -20z
m1635 -135 c9 0 15 -10 15 -26 0 -21 -3 -24 -13 -15 -8 6 -16 9 -19 6 -8 -8
-17 166 -10 184 4 9 8 -21 10 -66 2 -65 6 -83 17 -83z m-11215 125 c0 -14 -4
-25 -10 -25 -5 0 -10 4 -10 9 0 5 -3 16 -6 25 -4 11 -1 16 10 16 10 0 16 -9
16 -25z m9727 -17 c-3 -7 -5 -2 -5 12 0 14 2 19 5 13 2 -7 2 -19 0 -25z
m-6160 -10 c-3 -7 -5 -2 -5 12 0 14 2 19 5 13 2 -7 2 -19 0 -25z m6820 -110
c-2 -29 -3 -8 -3 47 0 55 1 79 3 53 2 -26 2 -71 0 -100z m-7932 122 c3 -6 3
-20 -1 -33 -7 -21 -7 -21 -15 -2 -4 11 -8 26 -8 33 -1 14 15 16 24 2z m4776
-63 c0 -21 1 -21 9 -2 6 15 9 7 9 -31 1 -55 -14 -79 -43 -68 -13 5 -16 21 -16
75 0 67 1 69 20 59 11 -6 20 -21 21 -33z m2441 -27 c2 -42 0 -50 -14 -50 -12
0 -19 12 -24 45 -3 25 -3 52 0 61 11 30 34 -4 38 -56z m-6262 50 c0 -5 -10
-10 -22 -9 -22 0 -22 1 -3 9 11 5 21 9 23 9 1 1 2 -3 2 -9z m5870 -25 c0 -19
-5 -25 -21 -25 -11 0 -18 3 -16 8 2 4 7 15 10 25 9 26 27 21 27 -8z m-7700 5
c0 -5 6 -10 14 -10 18 0 29 -27 15 -36 -6 -3 -17 -22 -25 -40 -8 -19 -18 -34
-23 -34 -11 0 -23 43 -17 62 2 7 7 25 10 41 6 25 26 39 26 17z m2337 -22 c-3
-7 -5 -2 -5 12 0 14 2 19 5 13 2 -7 2 -19 0 -25z m-3964 -15 c-3 -7 -9 -13
-14 -13 -11 0 -12 34 -2 43 9 10 22 -13 16 -30z m2074 4 c24 -34 22 -77 -3
-77 -8 0 -14 -4 -14 -10 0 -5 4 -10 9 -10 5 0 14 -14 21 -30 15 -36 1 -80 -25
-80 -8 0 -15 -6 -15 -14 0 -18 -16 -30 -17 -13 -1 7 -4 48 -8 93 -7 70 -5 82
9 87 16 6 23 36 9 38 -5 0 -16 2 -25 4 -10 2 -18 -3 -18 -10 0 -13 -35 -27
-44 -17 -10 9 -7 50 4 57 6 4 17 1 25 -5 12 -10 16 -9 21 4 10 27 47 19 71
-17z m8887 -14 c8 -19 -8 -38 -23 -29 -6 4 -16 16 -21 27 -9 16 -7 19 14 19
13 0 27 -7 30 -17z m-9907 -28 c-5 -13 -50 -14 -59 0 -12 16 -9 23 10 27 21 5
53 -13 49 -27z m5738 4 c0 -7 -8 -15 -17 -17 -18 -3 -25 18 -11 32 10 10 28 1
28 -15z m91 -14 c-4 -21 -2 -42 6 -54 10 -16 10 -23 0 -33 -17 -17 -48 3 -44
28 2 11 3 36 2 57 -1 32 2 37 21 37 19 0 21 -4 15 -35z m496 -21 c-4 -60 -10
-84 -23 -84 -10 0 -13 99 -3 125 13 33 29 8 26 -41z m1988 22 c-14 -14 -24 0
-16 21 6 15 8 15 16 3 6 -9 5 -19 0 -24z m1428 21 c6 -7 9 -22 7 -33 -2 -10
-7 -36 -10 -57 -3 -21 -11 -37 -17 -35 -13 5 -38 78 -26 78 5 0 6 5 3 10 -9
15 4 50 19 50 8 0 18 -6 24 -13z m-9628 -13 c0 -8 -4 -12 -10 -9 -5 3 -10 10
-10 16 0 5 5 9 10 9 6 0 10 -7 10 -16z m2926 5 c3 -6 0 -15 -7 -20 -22 -14
-29 -11 -29 11 0 21 24 27 36 9z m7570 -45 c-6 -16 -15 -17 -36 -4 -12 7 -11
12 5 30 17 18 20 19 28 5 5 -9 6 -23 3 -31z m-8652 -17 c6 -27 -5 -75 -18 -79
-13 -4 -27 52 -21 80 7 29 31 28 39 -1z m2490 -11 c8 3 23 1 33 -5 15 -9 12
-10 -18 -11 -20 0 -42 -7 -49 -15 -7 -8 -9 -15 -4 -15 11 0 -18 -20 -28 -20
-11 0 -10 38 2 61 9 15 15 17 30 9 10 -5 25 -7 34 -4z m4937 -72 l-9 -69 0 70
c0 39 3 74 6 80 11 18 12 -12 3 -81z m-9229 61 c0 -5 -5 -11 -11 -13 -6 -2
-11 4 -11 13 0 9 5 15 11 13 6 -2 11 -8 11 -13z m464 0 c8 -20 -4 -85 -16 -85
-12 0 -24 65 -16 85 3 8 10 15 16 15 6 0 13 -7 16 -15z m2366 -47 c-6 -6 -9 2
-7 24 4 45 7 49 12 14 3 -16 0 -33 -5 -38z m2699 -1 c-8 -8 -11 -2 -11 19 0
40 14 54 18 19 2 -15 -1 -32 -7 -38z m1425 -1 c-4 -25 -11 -46 -17 -46 -10 0
-13 93 -2 104 15 15 25 -15 19 -58z m2872 26 c4 -35 -10 -41 -40 -18 -33 24
-14 60 27 52 6 -2 11 -17 13 -34z m212 16 c0 -18 -2 -20 -9 -8 -6 8 -7 18 -5
22 9 14 14 9 14 -14z m-1800 -12 c0 -27 -16 -44 -23 -24 -5 18 3 48 14 48 5 0
9 -11 9 -24z m-7065 -68 c-4 -15 -13 -28 -20 -28 -8 0 -16 -17 -20 -42 -10
-68 -15 -77 -35 -75 -20 1 -30 37 -11 37 5 0 12 18 16 40 4 23 12 40 20 40 8
0 16 17 20 43 4 23 10 46 13 51 9 16 23 -37 17 -66z m-1325 53 c0 -5 -7 -14
-15 -21 -13 -10 -15 -9 -15 9 0 12 6 21 15 21 8 0 15 -4 15 -9z m4324 -7 c3
-9 6 -24 6 -35 0 -10 5 -19 11 -19 6 0 9 -8 7 -17 -2 -11 -12 -17 -28 -17 -22
-1 -25 4 -28 38 -4 42 2 66 17 66 5 0 12 -7 15 -16z m6386 6 c11 -7 -2 -10
-43 -10 -36 0 -56 4 -52 10 8 13 75 13 95 0z m-11092 -33 c3 -21 -1 -27 -17
-27 -25 0 -34 14 -26 41 10 29 39 20 43 -14z m-418 -33 c0 -14 -4 -22 -10 -19
-5 3 -10 17 -10 31 0 14 4 22 10 19 6 -3 10 -17 10 -31z m3456 25 c8 -14 -11
-33 -25 -25 -11 7 -4 36 9 36 5 0 12 -5 16 -11z m3243 -111 c-41 -36 -59 -36
-59 1 0 20 13 42 43 73 l42 45 3 -46 c3 -40 0 -48 -29 -73z m1591 108 c0 -20
-26 -40 -35 -26 -10 16 2 40 20 40 8 0 15 -6 15 -14z m-7380 -25 c13 -26 3
-51 -21 -51 -20 0 -23 10 -13 48 8 27 20 28 34 3z m5506 -19 c-1 -7 -7 -17
-13 -23 -15 -15 -25 4 -17 35 5 20 9 23 19 13 7 -7 12 -18 11 -25z m4397 3 c4
-8 2 -17 -3 -20 -6 -4 -10 3 -10 14 0 25 6 27 13 6z m-8109 -10 c-4 -8 -10
-12 -15 -9 -14 8 -10 24 6 24 9 0 12 -6 9 -15z m4496 -6 c0 -11 -4 -17 -10
-14 -5 3 -10 13 -10 21 0 8 5 14 10 14 6 0 10 -9 10 -21z m3793 1 c-3 -11 -9
-17 -14 -14 -14 8 -10 34 5 34 9 0 12 -7 9 -20z m-9533 -20 c0 -10 -5 -22 -10
-25 -13 -8 -24 20 -16 41 8 20 26 9 26 -16z m3614 -54 c-6 -40 -10 -46 -30
-46 -28 0 -31 12 -9 30 9 7 14 19 11 27 -3 7 -1 26 5 41 9 23 12 25 20 10 5
-9 6 -37 3 -62z m2006 43 c0 -11 -4 -17 -10 -14 -5 3 -10 13 -10 21 0 8 5 14
10 14 6 0 10 -9 10 -21z m-6130 -23 c0 -14 -4 -28 -10 -31 -6 -4 -10 7 -10 24
0 17 5 31 10 31 6 0 10 -11 10 -24z m2155 6 c6 -4 11 -15 13 -24 2 -14 -7 -19
-38 -24 -29 -5 -40 -11 -38 -22 2 -9 -4 -18 -13 -20 -12 -2 -15 4 -11 28 2 16
8 30 12 30 4 0 10 9 13 20 5 20 41 27 62 12z m-1605 -26 c0 -13 -7 -26 -15
-30 -8 -3 -15 -12 -15 -21 0 -19 -36 -20 -44 0 -3 9 3 20 14 27 11 7 20 21 20
30 0 11 8 18 20 18 14 0 20 -7 20 -24z m1467 7 c3 -7 -5 -17 -16 -23 -18 -9
-21 -8 -21 8 0 32 28 43 37 15z m563 -8 c0 -26 -14 -33 -25 -15 -9 14 1 40 15
40 5 0 10 -11 10 -25z m2836 3 c-3 -13 -6 -29 -6 -35 0 -7 -7 -13 -16 -13 -9
0 -18 -9 -21 -19 -3 -12 -17 -23 -36 -27 -18 -4 -45 -17 -62 -30 -36 -27 -84
-38 -102 -22 -20 17 -16 24 27 43 22 10 40 22 40 27 0 4 5 8 10 8 6 0 30 9 52
20 23 11 47 20 53 20 5 0 19 11 29 25 23 31 40 32 32 3z m1848 -20 c7 -36 -6
-50 -44 -46 -20 2 -24 8 -22 27 3 31 30 61 47 55 7 -3 16 -19 19 -36z m1023
26 c7 -20 -8 -36 -25 -25 -14 8 -6 41 9 41 5 0 12 -7 16 -16z m2251 -6 c2 -10
-6 -17 -23 -20 -29 -6 -29 -5 -13 22 14 22 31 21 36 -2z m-11528 3 c0 -6 -4
-13 -10 -16 -5 -3 -10 1 -10 9 0 9 5 16 10 16 6 0 10 -4 10 -9z m3320 0 c0
-12 -29 -23 -41 -15 -18 10 -9 24 16 24 14 0 25 -4 25 -9z m3500 -26 c0 -36
-13 -47 -24 -19 -11 28 -6 54 9 54 10 0 15 -11 15 -35z m-937 -21 c3 -15 -3
-33 -14 -47 -18 -22 -18 -22 -19 37 0 49 2 57 14 47 8 -6 16 -23 19 -37z
m5192 5 c0 -9 -11 -14 -33 -14 -23 -1 -31 3 -27 13 3 7 5 17 5 22 0 5 12 5 28
1 15 -4 27 -14 27 -22z m-10911 6 c3 -9 0 -39 -6 -68 l-12 -52 -9 53 c-9 54
-5 82 12 82 5 0 12 -7 15 -15z m7661 4 c14 -22 -5 -57 -36 -68 -50 -17 -72 11
-23 29 14 6 28 19 31 30 6 22 18 26 28 9z m3385 -1 c-1 -14 -24 -48 -33 -48
-9 0 -16 30 -11 45 7 18 44 20 44 3z m-11506 -36 c-9 -37 -23 -50 -33 -33 -9
15 -5 37 12 58 15 20 28 4 21 -25z m831 -12 c-2 -16 -21 -16 -19 0 1 6 2 20 3
33 2 21 3 21 10 2 5 -11 7 -27 6 -35z m2000 40 c3 -5 1 -10 -4 -10 -6 0 -11 5
-11 10 0 6 2 10 4 10 3 0 8 -4 11 -10z m1510 0 c3 -5 -3 -10 -15 -10 -12 0
-18 5 -15 10 3 6 10 10 15 10 5 0 12 -4 15 -10z m155 -6 c0 -8 -5 -12 -10 -9
-6 4 -8 11 -5 16 9 14 15 11 15 -7z m3051 -6 c28 -8 43 -6 66 6 30 15 43 13
43 -7 0 -5 -8 -7 -19 -4 -14 3 -18 -2 -19 -24 0 -22 4 -29 18 -29 10 0 22 -9
25 -21 4 -11 20 -25 37 -31 20 -7 26 -14 19 -21 -15 -15 -58 0 -89 32 -19 21
-41 31 -76 36 -39 6 -51 13 -66 38 -21 34 -17 52 9 41 9 -3 32 -11 52 -16z
m2949 12 c0 -5 -4 -10 -10 -10 -5 0 -10 5 -10 10 0 6 5 10 10 10 6 0 10 -4 10
-10z m-10160 -15 c0 -8 -4 -15 -10 -15 -5 0 -10 7 -10 15 0 8 5 15 10 15 6 0
10 -7 10 -15z m918 -3 c2 -7 -3 -12 -12 -12 -9 0 -16 7 -16 16 0 17 22 14 28
-4z m1989 -34 c-2 -13 -4 -5 -4 17 -1 22 1 32 4 23 2 -10 2 -28 0 -40z m8530
0 c-2 -13 -4 -5 -4 17 -1 22 1 32 4 23 2 -10 2 -28 0 -40z m-8779 16 c2 -11
-6 -28 -18 -39 -11 -10 -20 -29 -20 -42 0 -20 -5 -23 -41 -23 -32 0 -40 -3
-35 -15 4 -11 -2 -15 -24 -15 -27 0 -29 2 -18 19 7 11 24 23 37 26 38 10 52
25 45 50 -3 13 -1 33 6 45 15 28 64 24 68 -6z m5837 16 c3 -5 1 -10 -4 -10 -6
0 -11 5 -11 10 0 6 2 10 4 10 3 0 8 -4 11 -10z m-4961 -44 c-8 -21 -17 -20
-31 4 -11 16 -10 21 5 29 20 11 36 -8 26 -33z m2423 -6 l-15 -22 -12 22 c-9
16 -9 25 1 36 11 13 14 13 27 0 13 -12 13 -17 -1 -36z m-6400 29 c22 -8 24
-12 13 -19 -26 -17 -50 -11 -50 10 0 23 0 23 37 9z m4310 -36 c-3 -10 -5 -2
-5 17 0 19 2 27 5 18 2 -10 2 -26 0 -35z m3798 32 c0 -5 -17 -11 -37 -13 -38
-3 -53 12 -20 21 26 8 57 3 57 -8z m2955 0 c0 -8 -6 -15 -14 -15 -17 0 -28 14
-19 24 12 12 33 6 33 -9z m-10633 -17 c-3 -8 -6 -5 -6 6 -1 11 2 17 5 13 3 -3
4 -12 1 -19z m974 -23 c12 -25 25 -45 30 -45 5 0 9 -5 9 -11 0 -14 -42 -1 -57
19 -12 15 -19 82 -8 82 3 0 14 -20 26 -45z m2069 35 c0 -5 -17 -10 -37 -9 -31
0 -34 2 -18 9 28 12 55 12 55 0z m1915 0 c-28 -12 -65 -12 -65 0 0 6 19 10 43
9 32 0 37 -2 22 -9z m385 -24 c0 -13 -7 -29 -15 -36 -13 -11 -15 -8 -15 13 0
34 10 58 21 51 5 -3 9 -16 9 -28z m1290 -1 c0 -24 -15 -42 -23 -28 -3 5 -3 20
0 35 6 33 23 27 23 -7z m-5024 -82 c16 -12 28 -113 14 -113 -4 0 -13 27 -19
59 -9 45 -16 60 -32 64 -17 5 -19 11 -13 44 11 60 18 62 27 8 4 -27 15 -55 23
-62z m412 64 c-6 -38 -28 -31 -28 8 0 33 2 36 15 25 9 -7 15 -22 13 -33z
m2529 11 c-3 -7 -5 -2 -5 12 0 14 2 19 5 13 2 -7 2 -19 0 -25z m43 -9 c0 -11
-7 -19 -15 -19 -10 0 -15 10 -15 31 0 27 2 30 15 19 8 -7 15 -21 15 -31z
m3546 33 c24 -14 19 -72 -6 -72 -5 0 -15 7 -24 15 -12 13 -13 21 -4 40 12 27
16 29 34 17z m154 -22 c0 -28 -13 -40 -24 -22 -7 12 5 52 15 52 5 0 9 -13 9
-30z m1070 -5 c14 -8 21 -14 16 -15 -6 0 -1 -6 10 -14 15 -12 17 -17 7 -27 -7
-7 -13 -21 -13 -31 0 -27 -19 -21 -31 10 -6 15 -20 37 -31 49 -34 37 -6 56 42
28z m808 -50 c-14 -27 -13 -26 -32 -19 -21 8 -20 28 1 60 l16 26 13 -23 c9
-17 9 -29 2 -44z m364 36 c24 -31 23 -41 -7 -41 -24 0 -45 25 -45 53 0 22 30
14 52 -12z m543 19 c-3 -5 -11 -10 -16 -10 -6 0 -7 5 -4 10 3 6 11 10 16 10 6
0 7 -4 4 -10z m-5655 -14 c0 -8 -4 -18 -10 -21 -5 -3 -10 3 -10 14 0 12 5 21
10 21 6 0 10 -6 10 -14z m1450 4 c0 -25 -46 -80 -67 -80 -13 0 -23 2 -23 4 0
2 -3 11 -6 20 -4 10 7 23 33 40 41 27 63 32 63 16z m-6276 -52 c-7 -11 -36
-10 -54 2 -13 9 -11 13 10 29 25 20 25 20 37 -2 6 -12 9 -25 7 -29z m2344 1
c-33 -22 -62 7 -37 37 12 14 15 14 32 -7 14 -17 15 -24 5 -30z m-3355 -15
c-14 -13 -32 -24 -40 -24 -8 0 -11 -5 -7 -12 4 -7 3 -8 -4 -4 -18 11 -14 33
10 56 12 11 18 20 12 20 -5 0 -2 5 6 10 10 6 20 4 32 -7 16 -14 15 -17 -9 -39z
m387 37 c0 -12 -9 -20 -25 -23 -34 -7 -41 7 -13 26 29 21 38 20 38 -3z m3604
-6 c3 -8 1 -15 -4 -15 -6 0 -10 7 -10 15 0 8 2 15 4 15 2 0 6 -7 10 -15z
m4126 5 c0 -5 -5 -10 -11 -10 -5 0 -7 5 -4 10 3 6 8 10 11 10 2 0 4 -4 4 -10z
m3722 -82 c-12 -46 -38 -44 -35 2 1 20 7 49 14 65 l12 30 9 -32 c5 -19 5 -47
0 -65z m-7457 73 c3 -5 1 -12 -5 -16 -5 -3 -10 1 -10 9 0 18 6 21 15 7z m1332
-41 c-14 -36 -28 -19 -20 23 4 21 8 25 18 17 10 -8 10 -18 2 -40z m3573 40 c0
-5 -9 -10 -20 -10 -11 0 -20 5 -20 10 0 6 9 10 20 10 11 0 20 -4 20 -10z
m-666 -15 c16 -17 11 -48 -8 -42 -6 2 -13 14 -14 27 -3 18 -6 20 -13 9 -7 -11
-9 -11 -9 4 0 21 23 22 44 2z m329 -5 c-4 -14 -14 -20 -34 -20 -16 0 -29 4
-29 8 0 15 24 32 46 32 17 0 21 -4 17 -20z m-5048 -2 l26 -11 -43 -22 c-39
-20 -43 -25 -42 -56 1 -19 3 -43 5 -54 3 -14 -1 -20 -16 -20 -14 0 -22 10 -28
38 -7 30 -5 45 13 80 31 59 42 65 85 45z m710 -10 c6 -4 -6 -7 -25 -7 -19 1
-27 3 -17 6 9 2 17 9 17 15 0 7 3 7 8 2 4 -5 12 -12 17 -16z m2725 -14 c0 -9
-5 -14 -12 -12 -18 6 -21 28 -4 28 9 0 16 -7 16 -16z m1133 10 c9 -10 -12 -46
-24 -39 -14 9 -11 45 4 45 8 0 17 -3 20 -6z m1987 -4 c0 -5 -7 -10 -15 -10 -8
0 -15 5 -15 10 0 6 7 10 15 10 8 0 15 -4 15 -10z m-9958 -22 c-7 -7 -12 -8
-12 -2 0 14 12 26 19 19 2 -3 -1 -11 -7 -17z m1885 -48 c-1 -66 -2 -70 -24
-70 -25 0 -29 10 -13 26 6 6 13 34 17 62 9 75 21 64 20 -18z m-1545 4 c-3 -17
-8 -22 -15 -15 -5 5 -6 22 -3 37 9 35 25 14 18 -22z m3623 27 c3 -5 1 -12 -5
-16 -5 -3 -10 1 -10 9 0 18 6 21 15 7z m1321 -18 c-10 -10 -19 5 -10 18 6 11
8 11 12 0 2 -7 1 -15 -2 -18z m1524 15 c0 -7 -5 -20 -10 -28 -12 -20 -33 0
-24 23 7 20 34 23 34 5z m1470 -4 c0 -8 -5 -12 -10 -9 -6 4 -8 11 -5 16 9 14
15 11 15 -7z m-1345 -19 c14 -14 25 -30 25 -36 0 -8 -43 -3 -62 8 -14 8 -7 53
8 53 2 0 15 -11 29 -25z m-6931 -7 c11 -42 7 -78 -9 -78 -11 0 -15 12 -15 50
0 52 13 67 24 28z m9334 -6 c4 -25 -5 -27 -30 -8 -13 10 -15 15 -6 24 17 17
32 10 36 -16z m-9901 -34 c18 -20 10 -38 -17 -38 -20 0 -32 22 -25 45 15 47
18 51 23 30 2 -11 11 -28 19 -37z m8483 35 c0 -10 -22 -32 -50 -51 -43 -27
-51 -30 -57 -17 -11 29 13 62 54 73 53 14 53 14 53 -5z m3620 -29 c0 -24 -4
-34 -12 -31 -7 2 -13 9 -12 15 1 7 2 21 3 32 2 35 21 21 21 -16z m-1626 -6 c4
-17 2 -28 -4 -28 -5 0 -10 14 -10 32 0 36 4 35 14 -4z m-8444 -7 c0 -11 -4
-23 -10 -26 -6 -4 -10 5 -10 19 0 14 5 26 10 26 6 0 10 -9 10 -19z m3708 -9
c3 -17 -2 -22 -17 -22 -22 0 -25 8 -15 35 9 22 28 14 32 -13z m-2761 -4 c-3
-8 -6 -5 -6 6 -1 11 2 17 5 13 3 -3 4 -12 1 -19z m2875 0 c2 -13 12 -27 24
-32 19 -8 20 -13 11 -53 -8 -35 -15 -43 -32 -43 -20 0 -23 7 -29 65 -4 36 -4
70 -1 75 11 17 23 11 27 -12z m1580 -3 c0 -5 -5 -11 -11 -13 -6 -2 -11 4 -11
13 0 9 5 15 11 13 6 -2 11 -8 11 -13z m888 1 c0 -2 -7 -6 -15 -10 -8 -3 -15
-1 -15 4 0 6 7 10 15 10 8 0 15 -2 15 -4z m3640 -36 c0 -5 -9 -10 -20 -10 -11
0 -20 5 -20 10 0 6 9 10 20 10 11 0 20 -4 20 -10z m-3935 -80 c3 -6 -4 -10
-17 -10 -18 0 -20 2 -8 10 19 12 18 12 25 0z m5455 -781 c0 -13 -7 -19 -23
-19 -34 0 -39 10 -14 30 25 21 37 17 37 -11z m-165 11 c3 -5 18 -10 33 -10 21
0 24 -2 12 -10 -18 -12 -88 -12 -115 0 -17 7 -15 9 13 9 17 1 32 6 32 11 0 6
4 10 9 10 6 0 13 -4 16 -10z m-3145 -20 c0 -11 -100 -11 -145 0 -21 5 -4 8 58
9 52 1 87 -3 87 -9z m2707 4 c-3 -3 -12 -4 -19 -1 -8 3 -5 6 6 6 11 1 17 -2
13 -5z m256 -1 c-46 -2 -120 -2 -165 0 -46 1 -9 3 82 3 91 0 128 -2 83 -3z"/>
<path d="M10416 11511 c-9 -17 -16 -39 -16 -49 0 -11 -7 -25 -15 -32 -8 -7
-17 -28 -20 -49 -4 -20 -15 -56 -25 -81 -10 -25 -30 -74 -44 -110 -14 -36 -32
-79 -40 -95 -9 -17 -16 -35 -16 -41 0 -7 -11 -36 -24 -65 -13 -30 -40 -94 -61
-144 -72 -173 -128 -301 -172 -395 -25 -52 -54 -117 -65 -145 -11 -27 -25 -61
-32 -75 -7 -14 -24 -50 -38 -80 -69 -147 -270 -567 -287 -600 -4 -8 -13 -24
-19 -35 -7 -11 -48 -96 -92 -190 -44 -93 -87 -183 -96 -200 -65 -118 -284
-573 -284 -588 0 -9 -4 -19 -10 -22 -5 -3 -22 -32 -36 -63 -14 -31 -40 -86
-57 -122 -16 -36 -43 -94 -59 -130 -16 -36 -42 -92 -58 -125 -67 -143 -110
-237 -110 -242 0 -3 -8 -24 -19 -47 -34 -76 -62 -153 -68 -192 -3 -22 -13 -52
-21 -69 -11 -20 -17 -69 -20 -150 -4 -115 -3 -124 24 -189 35 -82 113 -168
171 -186 21 -7 43 -16 49 -21 38 -30 406 -65 504 -48 36 6 99 16 140 23 107
18 239 64 310 107 8 5 24 13 35 18 11 5 54 32 95 60 41 28 99 67 128 87 28 20
54 40 57 44 12 19 -30 31 -126 37 -57 3 -119 12 -138 19 -18 8 -44 14 -57 14
-12 0 -33 5 -46 10 -96 43 -132 81 -188 196 -25 53 -30 76 -35 185 -10 196 6
325 62 499 8 25 19 63 25 85 5 22 16 54 23 70 7 17 23 57 35 90 21 56 40 101
92 215 11 25 49 103 84 173 35 71 64 133 64 139 0 6 14 34 32 62 17 28 46 78
63 111 17 33 55 99 83 148 29 48 59 102 67 120 8 17 30 59 50 92 19 33 49 85
65 115 17 30 35 62 40 70 6 8 15 26 20 40 6 14 26 50 45 80 19 30 34 61 35 68
0 8 18 44 40 82 22 38 40 73 40 79 0 6 9 30 20 53 10 24 31 74 46 113 28 74
46 117 74 180 23 50 61 157 91 255 20 65 23 96 23 235 0 124 -4 174 -18 220
-20 69 -82 199 -102 216 -8 6 -14 17 -14 23 0 18 -143 164 -167 171 -17 5 -25
0 -37 -24z"/>
<path d="M4372 6998 c6 -18 28 -21 28 -4 0 9 -7 16 -16 16 -9 0 -14 -5 -12
-12z"/>
<path d="M4507 6924 c-8 -8 3 -34 14 -34 5 0 9 9 9 20 0 19 -11 26 -23 14z"/>
<path d="M7458 6443 c7 -3 16 -2 19 1 4 3 -2 6 -13 5 -11 0 -14 -3 -6 -6z"/>
<path d="M7720 6250 l-45 -7 40 -1 c22 -1 47 3 55 8 8 5 11 9 5 8 -5 0 -30 -4
-55 -8z"/>
<path d="M7840 6210 c0 -23 13 -26 29 -6 9 11 8 15 -5 20 -23 9 -24 8 -24 -14z"/>
<path d="M7900 6220 c-12 -8 -10 -10 8 -10 13 0 20 4 17 10 -7 12 -6 12 -25 0z"/>
</g>
</svg>
